<svg xmlns="http://www.w3.org/2000/svg" width="336" height="144" viewBox="0 0 252 108"><path fill="#231f20" d="M165.2 79.7c.1-3.1.3-6.2.3-9.3s.5-7.7-.2-11.3l-.6 1.2c3.4-.2 9.3-2 11.8 1.1 3.7 4.7-7.6 7.5-10.3 8-.5.1-.5 1-.2 1.3 6.9 6.5 17.5 11.7 25.4 3.6.3-.4.1-1.7-.5-1.2-4.9 4.2-10.5 5-16.4 2.2a32.7 32.7 0 0 1-8-5.8l-.2 1.3a28.8 28.8 0 0 0 9.3-3.3 4.8 4.8 0 0 0 2.7-4.8c-.6-6.6-9.4-4.3-13.6-4.3-.6 0-.7.8-.6 1.2.6 3.7.2 7.7.2 11.4s-.1 5.8-.1 8.8c0 .9 1 .9 1-.1zM31.8 55.1c.1-3.7.3-7.4.3-11s.5-8.8-.3-13l-.5 1.2c2.5-.1 5-.5 7.5-.6a11.2 11.2 0 0 1 4.1.3c2.1.8 3.7 3.1 2.9 5.3s-3.7 2.9-5.7 3.7-4.4 1.6-6.7 2.2c-.4.1-.4 1-.2 1.2a32.6 32.6 0 0 0 14.9 10.4c.6.2.7-1.1.2-1.3-5.6-2.7-10.4-5.3-14.4-10.1l-.2 1.2a45.3 45.3 0 0 0 9.9-3.6 5.7 5.7 0 0 0 3.4-5.4c-.3-7.7-11.1-5.3-15.8-5.2-.5 0-.6.8-.5 1.2.7 4.2.2 8.8.2 13.1s-.1 6.9-.1 10.4c0 1 1 .9 1 0zm34.3-16.9c3.3 12.2 6.8 24.3 10.2 36.4l1.2-.5a133.4 133.4 0 0 1-3.9-16.6c-.9-5.7-.5-11.5 2.9-16.4s6.5-6.3 10.9-6.5c6-.2 7.9 5.4 8.1 10.5s-1.6 10.6-3.1 15.8-3 10.4-4.4 15.6-3.1 12.5-1.4 18.4 7.4 9.5 14 8.3c.6-.1.6-1.5 0-1.4-4 .5-8.1-.1-10.8-3.3a12.8 12.8 0 0 1-2.5-7.6c-.3-3.7.6-7.6 1.4-11.3 1.3-6 3.1-11.9 4.8-17.8s3-9.3 3.3-14.3-.4-9.3-3.2-12.5c-5.2-6.1-14.5-.1-18 4.8s-4.1 9.8-3.6 15.1 2.5 13.3 4.3 19.7c.4 1.2 1.4.5 1.2-.5C74 62 70.4 49.9 67 37.8c-.2-.9-1.1-.4-.9.4zM47.7 81.5c-1.2-2.9-2.3-5.9-3.3-8.9s-1.1-3.5-1.5-5.3a10.2 10.2 0 0 0-.7-2.9c-.2-.5-.8-.6-1 0-.6 2.2-1.1 4.7-2.8 6.4s-4.5 1.6-6.5-.3a30.9 30.9 0 0 1-3.7-4.3c-1.2-1.5-2-3.5-3.4-4.8s-.9.4-.8.8c.1 2.6.7 5.2.9 7.8s.2 5.5.2 8.2a159.1 159.1 0 0 1-1.3 18.2c-.1.6.6 1.1.8.3a94.6 94.6 0 0 0 1.7-17.6c0-2.7-.1-5.5-.2-8.2s-.8-5.8-.9-8.7l-.9.8c1.1 1.1 1.9 2.9 2.9 4.2s1.2 1.7 1.9 2.5 3 3.6 5.2 4.2c4.9 1.5 7-5.1 8-8.6h-1.1c.6 1.2.6 2.8 1 4.1s.9 3 1.4 4.4a48 48 0 0 0 3.5 8.4c.4.6.8-.4.6-.8zM112 31.8c-8.5-3.3-13.1 7.9-11.3 14.8.8 3.4 3.3 6.8 6.8 7.8s8.9-1.2 11.9-4.4c.4-.5.1-1.9-.6-1.4-2.7 2-5.4 4.1-8.9 4.1s-6.3-2.3-7.7-5.6a12.2 12.2 0 0 1 .3-9c1.7-4.1 4.8-6.7 9.3-5.3.5.2.6-.9.2-1zm10.3-1.2v-.3c.2-1.1-1.1-1.5-1.2-.2-.1 3.6.3 7.2.3 10.8s-.1 8.1.1 12.2c0 1.2 1.2 1.1 1.2 0 .2-4.1.1-8.1.1-12.2s-.5-7.2-.5-10.8l-1.1.3v.2c.1.8.9.7 1.1 0zm15.2 0v-.3c.2-1.1-1.1-1.5-1.2-.2-.1 3.6.3 7.2.3 10.8s-.1 8.1.1 12.2c0 1.2 1.2 1.1 1.2 0 .2-4.1.1-8.1.1-12.2s-.5-7.2-.5-10.8l-1.1.3v.2c.1.8.9.7 1.1 0z"/><path fill="#231f20" d="M122.4 42c2.1.6 4.3.3 6.5.3a56.3 56.3 0 0 0 8.2-.4c.6-.1.6-1.4 0-1.4l-7.8.2a30.9 30.9 0 0 1-6.8 0c-.6-.1-.6 1.2-.1 1.3zm30-12.9c-3.5-.2-6.9-.1-10.4-.4a.5.5 0 0 0-.3.3 5.7 5.7 0 0 0-.4 2.6c-.1 1.6-.2 3.1-.2 4.7-.2 5.5-.6 11-.4 16.5 0 .3.1.7.4.8s3.7.2 5.3.2c3.3 0 6.5 0 9.7-.3.6 0 .5-1.2 0-1.3-3-.2-5.9-.2-8.9-.2s-4.2.5-5.8-.1l.4.8a174 174 0 0 1 .5-19.1 20.9 20.9 0 0 0 .1-2.5c.1-1.5.1-1.1 1.4-1s5.7 0 8.6 0c.4 0 .4-1 0-1z"/><path fill="#231f20" d="M141.3 41.4c3.2.6 7 .2 10.2.1.6 0 .6-1.3 0-1.4-3.2-.2-7-.5-10.1.2-.4.1-.5 1-.1 1.1zm32.6-6.3c-1.7-4.1-7.7-4.3-11.4-3.1s-5.6 4.3-2.5 6.9 12.1 2.2 12.8 8.4c.9 8.1-18.4 6.7-15.1-3.7.1-.5-.4-1.3-.7-.6-5.1 11.1 16.1 16.1 16.9 5.6.5-5.7-4.8-7.9-9.3-9.4a26.8 26.8 0 0 1-3-1.2 2.2 2.2 0 0 1-1.3-3 4.5 4.5 0 0 1 2-1.2c3-1.2 9.4-1.5 11 1.9.3.6.7-.1.6-.6zM115.4 63c-1.7-4.1-7.6-4.3-11.4-3.1s-5.5 4.3-2.5 6.9 12.1 2.2 12.9 8.4c.9 8.1-18.4 6.7-15.2-3.7.2-.5-.3-1.3-.7-.6-5.1 11.1 16.1 16.1 17 5.5.5-5.6-4.8-7.8-9.3-9.3-1-.4-2.1-.7-3.1-1.2a2.1 2.1 0 0 1-1.2-3 4.7 4.7 0 0 1 1.9-1.2c3-1.2 9.4-1.5 11 1.8.3.7.8-.1.6-.5zm17.5-.6c-10-4.1-19.9 13.1-9 17.5 2.5 1.1 5.6 2 8.3 1.1a8.7 8.7 0 0 0 5.3-6.3c1.5-6.4-3-11.6-8.6-13.9-.8-.4-.8 1.3-.2 1.7 4.5 2.4 9.5 7 7.1 12.7s-7.4 4.7-11.7 3-4.6-5.4-3-9 7.1-7.5 11.7-5.9c.4.1.5-.8.1-.9zm10.6 1.8c-2.8 1.9-3 7.7-2.2 10.6a9 9 0 0 0 10.8 6.1c9.8-2.5 9.9-18.5 1.4-22.7-.6-.3-.6.9-.3 1.2 2.9 2.4 5 5.6 5.1 9.5s-1.6 7.9-5.3 9.6a8 8 0 0 1-9.6-2.6c-1.9-2.6-1.7-8 .4-10.5.3-.2.2-1.5-.3-1.2zm49.6-26.1c-.2-6.5-8.6-9.7-13.3-5.6s-4.8 10-2.6 14.6a11.6 11.6 0 0 0 16.9 5c3.3-2.2 5.8-5.7 7.8-9.1s2.9-7.9 4.4-11.9l-.8-.3a105.5 105.5 0 0 1-1.2 11.3c-.4 3.6-.6 7.2-.8 10.8a43.3 43.3 0 0 0 2.2 17.9c1.9 4.9 5.6 9.6 11 10.7s10.2-2.5 14.1-6.4c.5-.5.1-2.1-.6-1.5-4 3.6-8.3 7.3-14.1 5.8s-9.3-7.7-10.6-13.3c-2.6-11.9.5-23.4.9-35.4 0-.5-.6-.9-.9-.3-1 2.4-1.5 5.1-2.6 7.5a37.5 37.5 0 0 1-5.3 8.8c-4.1 5-10.3 7.7-16.1 3.5a10.7 10.7 0 0 1-3-13.7 7.7 7.7 0 0 1 5.2-4.1c3.6-.6 8.3 1.6 8.6 5.7.1.7.8.7.8 0z"/><path fill="#231f20" d="M196 50.4a28.3 28.3 0 0 1 4.1 1.4 44.8 44.8 0 0 0 5 1.1c.6.2.7-1.1.2-1.3s-3.5-1-5.2-1.5a19.2 19.2 0 0 0-4-.9c-.5 0-.5 1.1-.1 1.2zM25.1 57.5a66.9 66.9 0 0 0-.3-7.8c-.1-3.2-.2-6.4-.4-9.6-.4-6.1-.9-12.2-1.4-18.3-.1-1-.7-2.5-.5-3.4s.9-.9 1.9-1.1c2.8-.7 5.6-1.2 8.5-1.7 6-1.1 12-2.1 17.9-3.6.6-.2.5-1.7-.1-1.6l-20.3 3.5-7.6 1.6c-1.4.4-1.9.9-1.9 2.4.2 3 .8 6.1 1 9.1s.6 6.8.9 10.2c.6 6.7.9 13.4 1.5 20.1.1.6.8.9.8.2zm22.3 12.3c3.4-6.3 6.1-13.1 8.9-19.6.8-1.8 1.4-3.5 2-5.3s1-3.8 1.4-3.8.6 2.1.7 2.6.7 2.4 1.1 3.5c3.7 11.8 7.5 23.5 11.9 35 .2.4.6 0 .5-.4-2.1-7.7-4.7-15.4-7.3-23.1-1.6-4.8-3-9.6-4.5-14.4-.5-1.3-1-5.3-2.8-5.3-.3 0-.5.3-.6.6-3.5 9.9-7.9 19.7-12.2 29.3-.2.5.4 1.7.9.9z"/><path fill="#231f20" d="M53.8 55.9a77.6 77.6 0 0 0 10.8.2c.7-.1.7-1.6-.1-1.7a76.5 76.5 0 0 0-10.7.2c-.6 0-.6 1.3 0 1.3zm-31-38.4l.9 12.9.7 10.4-1.3-5-1.5-17.1 1.2-1.2zm6.96-8.8l1.135-2.227 2.62 1.335-1.135 2.227zm3.62-1.679l1.135-2.227 2.62 1.334-1.136 2.228zm69.52 21.491l1.135-2.228 2.62 1.335-1.136 2.227zm3.52-1.78l1.134-2.227 2.62 1.334-1.135 2.228zm39.543 58.12l1.855-1.676 1.97 2.181-1.854 1.676zm4.067-.405l1.854-1.676 1.971 2.182L152 86.629zm-45.414 1.725l1.855-1.676 1.971 2.181-1.855 1.676zm74.482-58.662l1.556-1.956 2.3 1.83-1.555 1.956zm3.861-.934l1.556-1.957 2.301 1.83-1.556 1.957zm-3.015-3.02L181.5 21.6l2.3 1.83-1.556 1.956zm37.234 62.307l1.135-2.227 2.62 1.334-1.135 2.228zM128.496 58.14l1.135-2.228 2.62 1.335-1.136 2.228zM81.565 27.091l1.89-1.636 1.924 2.222-1.89 1.637z"/></svg>