<svg id="Layer_1" data-name="Layer 1" xmlns="http://www.w3.org/2000/svg" width="4.5in" height="1.3in" viewBox="0 0 324 90"><title>FranchescaMansourLogo</title><polygon points="4.3 80.2 27.4 79.4 27.4 81 4.3 80.2" fill="#231f20"/><polygon points="40.1 79.4 143.7 80.2 40.1 81 40.1 79.4" fill="#231f20"/><polygon points="63.5 9.8 143.7 10.6 63.5 11.4 63.5 9.8" fill="#231f20"/><polygon points="259.5 79.4 317.8 80.2 259.5 81 259.5 79.4" fill="#231f20"/><path d="M7.3,42.3H8.4c2.3,0,2.8-1.2,2.8-2.8V13.6c0-1.6-.5-2.8-2.8-2.8H7.3v-.4H21.5c7.8,0,7.9-.2,8.8-1.5l.2.2a68.2,68.2,0,0,0,.2,12.6h-.3c-.9-7.9-3.6-10.9-9.2-10.9H18.8V26.7c5.2,0,7.1-1.5,8.2-5.4l.3.2a87.7,87.7,0,0,0-.8,13.1h-.2c-.2-5.3-1.9-7.6-7.5-7.6V38.6c0,2.7.7,3.7,3.5,3.7h2.1v.4H7.3Z" fill="#231f20"/><path d="M50.9,34.9c-.5-6.4.2-7.2-1.9-7.9l-3.2.2H44.1V39.5c0,1.7.6,2.8,2.6,2.8h1.2v.4H32.7v-.4h1c2.3,0,2.8-1.2,2.8-2.8V13.6c0-1.6-.5-2.8-2.8-2.8h-1v-.4H37l10.1-.2c8.5,0,12,2.3,12,8.6,0,4.2-3.2,7.3-8.1,7.7v.2c4.7.2,7.5,1.9,8.1,7.5s0,7.7,2.1,7.7S63,40.2,63,38.8a2.5,2.5,0,0,0-.3-1.3c.1-.2.5-.3.6,0a5.9,5.9,0,0,1,.2,1.3c0,2.9-2.3,4.3-5.6,4.3S51.4,41.2,50.9,34.9Zm-.2-15.8c0-3.7,1.1-8.5-4.2-8.5a7.9,7.9,0,0,0-2.4.5V26a4.4,4.4,0,0,0,2.7.7C51.1,26.7,50.7,23.4,50.7,19.1Z" fill="#231f20"/><path d="M149.5,80.1a85,85,0,0,0,1.7-14.2h.2c0,9.2,3.6,14,7.6,14s4.5-2.1,4.5-4.9-2.8-5.7-5.2-7.6c-5.2-4-8.1-6.9-8.1-12s3.5-8.4,10.4-8.4l5.5.2c1.8,0,3.1-.2,3.6-1.2l.3.3c-.8,3.2-.8,8.4-1,13.2h-.3c-.4-8.6-4.2-12-7.1-12s-4.1,1.8-4.1,3.9c0,4,2.6,6.2,6.2,8.9s7.2,5.3,7.2,10.5-4.1,9.5-11.4,9.5c-2.8,0-5.6-1.1-7.6-1.1a2.3,2.3,0,0,0-2.2,1.1Z" fill="#231f20"/><path d="M174.1,63.3c0-9.6,5.3-16.3,13.8-16.3s13.8,6.7,13.8,16.2-5.2,17.1-13.8,17.1S174.1,73.6,174.1,63.3Zm18.8-.4c0-5.5,2.9-15.5-5-15.5S183,57.5,183,62.9s-2.9,16.9,4.9,16.9S192.9,68.8,192.9,62.9Z" fill="#231f20"/><path d="M207.6,67.2V50.7c0-1.7-.8-2.8-3.1-2.8h-.8v-.5h16v.5h-.8a2.9,2.9,0,0,0-3.2,3.2V68.7c0,8.2,3.3,10.2,6.7,10.2s6.9-2.8,6.9-11.5V52.5c0-2.9-1-4.6-3.6-4.6h-.9v-.5h9.3v.5h-.8c-2.4,0-3.4,1.9-3.4,4.6V67.7c0,7.9-3.3,12.8-10.8,12.8S207.6,76.9,207.6,67.2Z" fill="#231f20"/><path d="M253,72c-.5-6.4.2-7.2-2-8l-3.2.2h-1.6V76.6c0,1.6.6,2.7,2.5,2.7H250v.5H234.7v-.5h1.1c2.3,0,2.7-1.1,2.7-2.7V50.7c0-1.7-.4-2.8-2.7-2.8h-1.1v-.5h4.4l10-.2c8.5,0,12.1,2.3,12.1,8.6,0,4.2-3.3,7.3-8.2,7.8h0c4.7.2,7.6,1.9,8.2,7.6s0,8.1,2,8.1,1.5.4,2.1.4-2.1,1.1-5.4,1.1S253.5,78.2,253,72Zm-.3-15.8c0-3.7,1.1-8.5-4.2-8.5a5.7,5.7,0,0,0-2.4.5V63.1a4.4,4.4,0,0,0,2.7.7C253.1,63.8,252.7,60.5,252.7,56.2Z" fill="#231f20"/><path d="M23.2,52.4H23V76.3c0,2.3,1,3.8,3.2,3.8h1.2v.5H18.2v-.5h1c2.2,0,3.2-1.5,3.2-3.7v-25c0-1.8-.9-2.7-2.9-2.7h-.9v-.5H30.2l7.2,21h.2l6.9-21H55.3v.5h-.7c-2.3,0-2.7,1-2.7,2.7V77.3c0,1.7.5,2.8,2.7,2.8h1.1v.5H40.1v-.5H41c2.3,0,3.2-1,3.2-2.6V51.9h-.3L34.2,81.3h-.5Z" fill="#231f20"/><path d="M56.6,67.1h1.5c3.4,0,5.9-4.3,7.6-10L74.9,27c-.9-3.2-2-5-4.3-5v-.6c8.7,0,12-.7,12.7-4.2h.5c-.1,2.7,1,6.7,1.9,9.3L97,61.3c1.4,4.3,2.6,5.8,6.1,5.8h.7v.7H79.4v-.7h2c3.4,0,5.1-1.9,4-6L82.1,49.7H68.9l-2.4,7.8c-2,6.5.5,9.6,3.7,9.6h1.7v.7H56.6ZM81.9,48.9,75.5,29h-.4L69.2,48.9Z" fill="#231f20"/><path d="M108.6,28.1h-.3V61.2c0,3.6,1.8,5.9,5.8,5.9h2v.7H101.2v-.7h1.2c3.7,0,5.1-2.4,5.1-5.7V25c0-2.5-1.2-4-4.6-4h-1.4v-.7h15.6l19.4,28.1V26.2c0-2.7-1.5-5.2-4.8-5.2h-2v-.7h13.2V21h-1.2c-3.3,0-4.4,2.6-4.4,5.2V68.8H137Z" fill="#231f20"/><path d="M170.8,42.9a2.4,2.4,0,0,0-2.5-1.7c-2,0-4.6,1.3-6.8,1.3-9,0-13.8-6.8-13.8-16.9s5-16.3,13.8-16.3c3,0,5.1.4,6.5.4a2.3,2.3,0,0,0,2.5-1.4l.3.2c-.8,3.2-.7,8.9-.9,13.8h-.4c-.4-8.6-3-12.6-7.5-12.6-7.4,0-4.7,10.1-4.7,15.5s-2.9,16.7,4.7,16.7c5.5,0,7.2-8.3,7.8-14.4h.3c-.1,4.8.2,12.3,1.1,15.2Z" fill="#231f20"/><path d="M173.9,41.5H175c2.3,0,2.7-1.1,2.7-2.7V12.9c0-1.6-.4-2.8-2.7-2.8h-1.1V9.6h15v.5h-1c-1.8,0-2.5,1.2-2.5,2.8V25h10.1V12.9c0-1.6-.7-2.8-2.5-2.8h-1.1V9.6h15v.5h-1c-2.3,0-2.7,1.2-2.7,2.8V38.8c0,1.5.4,2.7,2.7,2.7h1V42h-15v-.5H193c1.8,0,2.5-1.1,2.5-2.7V25.6H185.4V38.8c0,1.5.7,2.7,2.5,2.7h1V42h-15Z" fill="#231f20"/><path d="M233,44c-.8-1.8-1.7-2-10.9-2H209.4v-.5h1.1c2.3,0,2.8-1.1,2.8-2.7V12.9c0-1.6-.5-2.8-2.8-2.8h-1.1V9.6h13.5c7.8,0,8.9-.2,9.8-1.4l.2.2a62.3,62.3,0,0,0-.3,12.7l-.3.2c-1.2-7.8-1.8-11.2-8.1-11.2h-3.3V24.3c5.2,0,6.1-1.3,7.1-5.3h.3a46,46,0,0,0,.1,12.3l-.2.2c-1-5.3-2-6.8-7.3-6.8V41.5h2.7c4.6,0,8.9-3,10.7-14h.4A90.2,90.2,0,0,0,233.2,44Z" fill="#231f20"/><path d="M236.9,42.3a85,85,0,0,0,1.7-14.2h.2c0,9.2,3.6,14,7.6,14s4.5-2.1,4.5-4.9-2.8-5.7-5.2-7.5c-5.2-4.1-8.1-7-8.1-12.1s3.5-8.4,10.4-8.4l5.5.2c1.8,0,3.1-.2,3.6-1.1l.3.2c-.8,3.2-.8,8.4-1,13.3h-.3c-.4-8.6-4.2-12.1-7.1-12.1s-4.1,1.8-4.1,3.9c0,4,2.6,6.2,6.2,8.9s7.2,5.3,7.2,10.5-4.1,9.6-11.4,9.6c-2.8,0-5.6-1.1-7.6-1.1a2.2,2.2,0,0,0-2.2,1.1Z" fill="#231f20"/><path d="M284.6,42.9a2.5,2.5,0,0,0-2.6-1.7c-2,0-4.5,1.3-6.8,1.3-8.9,0-13.7-6.8-13.7-16.9s5-16.3,13.8-16.3c3,0,5.1.4,6.5.4a2.3,2.3,0,0,0,2.5-1.4l.3.2c-.8,3.2-.8,8.9-1,13.8h-.3c-.4-8.6-3-12.6-7.6-12.6-7.3,0-4.6,10.1-4.6,15.5s-2.9,16.7,4.7,16.7c5.4,0,7.2-8.3,7.8-14.4h.3c-.2,4.8.2,12.3,1,15.2Z" fill="#231f20"/><path d="M285.8,41.5h1c2.3,0,4-2.9,5.2-6.7l6.2-20.6c-.6-2.1-1.4-3.4-2.9-3.4v-.4c5.9,0,8.1-.5,8.6-2.9h.4a20.3,20.3,0,0,0,1.3,6.4l7.7,23.7c.9,2.9,1.7,3.9,4.1,3.9h.5V42H301.3v-.5h1.3c2.3,0,3.5-1.2,2.7-4l-2.2-7.8h-9L292.5,35c-1.4,4.4.3,6.5,2.5,6.5h1.2V42H285.8ZM303,29.2l-4.4-13.6h-.3l-4,13.6Z" fill="#231f20"/></svg>