<svg id="Layer_1" data-name="Layer 1" xmlns="http://www.w3.org/2000/svg" width="4.5in" height="1.3in" viewBox="0 0 324 90"><title>FranchescaMansourLogo</title><rect x="2.8" y="81" width="23.5" height="1.08" fill="#231f20"/><rect x="39.2" y="81" width="105.2" height="1.08" fill="#231f20"/><rect x="62.9" y="10.3" width="81.5" height="1.08" fill="#231f20"/><rect x="262.1" y="81" width="59.2" height="1.08" fill="#231f20"/><path d="M5.9,43.1H7c2.4,0,2.8-1.2,2.8-2.9V13.9c0-1.6-.4-2.8-2.8-2.8H5.9v-.4H20.3c7.9,0,8.1-.3,9-1.5l.2.2a67.6,67.6,0,0,0,.1,12.7h-.2c-1-8-3.7-11-9.4-11H17.6V27.2c5.2,0,7.2-1.5,8.3-5.4h.3a92,92,0,0,0-.8,13.4h-.2c-.3-5.3-2-7.6-7.6-7.6V39.3c0,2.8.7,3.8,3.5,3.8h2.2v.4H5.9Z" fill="#231f20"/><path d="M50.2,35.6c-.5-6.5.2-7.3-2-8.1l-3.2.2H43.3V40.2c0,1.7.6,2.9,2.6,2.9h1.3v.4H31.7v-.4h1c2.4,0,2.9-1.2,2.9-2.9V13.9c0-1.6-.5-2.8-2.9-2.8h-1v-.4h4.4l10.2-.3c8.6,0,12.2,2.4,12.2,8.8,0,4.2-3.3,7.4-8.2,7.8v.2c4.7.2,7.6,1.9,8.2,7.7s0,7.8,2.1,7.8,1.8-1.8,1.8-3.2a2.5,2.5,0,0,0-.2-1.3c0-.2.5-.3.6,0a5.7,5.7,0,0,1,.1,1.3c0,3-2.2,4.4-5.6,4.4S50.7,41.9,50.2,35.6Zm-.3-16.1c0-3.7,1.2-8.6-4.2-8.6a7.9,7.9,0,0,0-2.4.5V26.5a4.4,4.4,0,0,0,2.7.7C50.4,27.2,49.9,23.9,49.9,19.5Z" fill="#231f20"/><path d="M150.3,81.5A89.1,89.1,0,0,0,152,67.1h.3c0,9.3,3.6,14.2,7.7,14.2s4.6-2.2,4.6-5-2.9-5.8-5.3-7.7c-5.3-4.1-8.3-7.1-8.3-12.2s3.6-8.5,10.7-8.5l5.5.2c1.8,0,3.1-.3,3.7-1.2l.2.2c-.8,3.3-.8,8.6-.9,13.5h-.3c-.5-8.7-4.3-12.3-7.3-12.3s-4.1,1.9-4.1,4c0,4.1,2.6,6.3,6.3,9s7.3,5.4,7.3,10.8-4.2,9.6-11.6,9.6c-2.8,0-5.8-1.1-7.7-1.1a2.2,2.2,0,0,0-2.2,1.1Z" fill="#231f20"/><path d="M175.3,64.4c0-9.8,5.4-16.6,14.1-16.6s14,6.8,14,16.5-5.4,17.3-14,17.3S175.3,74.8,175.3,64.4Zm19.1-.4c0-5.6,2.9-15.7-5-15.7s-5,10.2-5,15.7-3,17.2,5,17.2S194.4,70,194.4,64Z" fill="#231f20"/><path d="M209.4,68.4V51.6c0-1.8-.9-2.8-3.2-2.8h-.8v-.5h16.3v.5h-.8c-2.2,0-3.3,1-3.3,3.2V69.9c0,8.3,3.3,10.3,6.8,10.3s7-2.7,7-11.6V53.5c0-3-1-4.7-3.7-4.7h-.9v-.5h9.5v.5h-.8c-2.5,0-3.5,1.9-3.5,4.7V68.9c0,8-3.3,13-10.9,13S209.4,78.2,209.4,68.4Z" fill="#231f20"/><path d="M255.4,73.2c-.5-6.5.2-7.3-1.9-8.1l-3.3.2h-1.7V77.9c0,1.7.6,2.8,2.6,2.8h1.3v.5H236.9v-.5H238c2.3,0,2.8-1.2,2.8-2.8V51.6c0-1.7-.5-2.8-2.8-2.8h-1.1v-.5h4.4l10.2-.2c8.6,0,12.2,2.3,12.2,8.7,0,4.3-3.2,7.5-8.2,7.9h0c4.7.3,7.6,1.9,8.2,7.7s.1,8.3,2.2,8.3,1.5.4,2.1.4-2.1,1.1-5.6,1.1S256,79.6,255.4,73.2Zm-.2-16c0-3.8,1.1-8.7-4.3-8.7a7.9,7.9,0,0,0-2.4.5V64.2a4.4,4.4,0,0,0,2.7.7C255.6,64.9,255.2,61.5,255.2,57.2Z" fill="#231f20"/><path d="M22,53.3h-.2V77.6c0,2.3,1,3.9,3.3,3.9h1.2v.4H16.9v-.4h1c2.3,0,3.3-1.6,3.3-3.8V52.4c0-1.9-.9-2.9-3-2.9h-.8v-.4H29.2l7.3,21.3h.2l6.9-21.3H54.7v.4H54c-2.4,0-2.9,1.1-2.9,2.8V78.7c0,1.7.6,2.8,2.9,2.8h1v.4H39.2v-.4h.9c2.3,0,3.3-1.1,3.3-2.7v-26h-.3L33.2,82.7h-.5Z" fill="#231f20"/><path d="M56,68.3h1.5c3.5,0,6-4.4,7.8-10.2l9.3-30.6c-.9-3.2-2.1-5-4.4-5.1v-.5c8.8,0,12.2-.8,12.8-4.4h.6c-.1,2.9,1,6.9,1.9,9.5L97,62.4c1.4,4.3,2.6,5.9,6.2,5.9h.7V69H79.1v-.7h2.1c3.4,0,5.2-1.9,4-6.1L81.9,50.6H68.5l-2.5,8c-2,6.5.5,9.7,3.8,9.7h1.7V69H56ZM81.7,49.8,75.1,29.6h-.3l-6,20.2Z" fill="#231f20"/><path d="M108.8,28.6h-.3V62.3c0,3.6,1.8,6,5.8,6h2.1V69H101.3v-.7h1.2c3.7,0,5.2-2.4,5.2-5.8v-37c0-2.5-1.3-4.1-4.7-4.1h-1.4v-.7h15.8l19.7,28.6V26.7c0-2.7-1.5-5.3-4.8-5.3h-2.1v-.7h13.4v.7h-1.2c-3.4,0-4.5,2.7-4.5,5.3V70h-.3Z" fill="#231f20"/><path d="M172,43.7a2.7,2.7,0,0,0-2.6-1.8c-2,0-4.7,1.4-6.9,1.4-9.1,0-14-6.9-14-17.2s5.1-16.6,14-16.6c3.1,0,5.2.5,6.6.5a2.5,2.5,0,0,0,2.6-1.5l.3.3c-.8,3.2-.8,9-1,13.9h-.3C170.2,14,167.6,10,163,10c-7.5,0-4.7,10.2-4.7,15.7s-3,17,4.7,17c5.6,0,7.4-8.5,7.9-14.6h.4c-.2,4.9.2,12.4,1,15.4Z" fill="#231f20"/><path d="M175.1,42.3h1.1c2.3,0,2.8-1.2,2.8-2.8V13.2c0-1.6-.5-2.8-2.8-2.8h-1.1V9.9h15.3v.5h-1.1c-1.8,0-2.5,1.2-2.5,2.8V25.5h10.3V13.2c0-1.6-.7-2.8-2.6-2.8h-1.1V9.9h15.3v.5h-1c-2.4,0-2.9,1.2-2.9,2.8V39.5c0,1.6.5,2.8,2.9,2.8h1v.5H193.4v-.5h1.1c1.9,0,2.6-1.2,2.6-2.8V26.1H186.8V39.5c0,1.6.7,2.8,2.5,2.8h1.1v.5H175.1Z" fill="#231f20"/><path d="M235.1,44.8c-.7-1.8-1.7-2-11.1-2H211.2v-.5h1.1c2.3,0,2.8-1.2,2.8-2.8V13.2c0-1.6-.5-2.8-2.8-2.8h-1.1V9.9h13.7c7.9,0,9-.2,9.9-1.5l.2.2a74,74,0,0,0-.3,13l-.3.2c-1.2-7.9-1.8-11.4-8.2-11.4h-3.3V24.8c5.2,0,6.1-1.3,7.2-5.4h.2a53.2,53.2,0,0,0,.2,12.5l-.3.2c-.9-5.4-1.9-6.9-7.3-6.9v17h2.7c4.7,0,9.1-3.1,10.9-14.2h.4a91.6,91.6,0,0,0-1.5,16.7Z" fill="#231f20"/><path d="M239.1,43.1a89.1,89.1,0,0,0,1.7-14.4h.3c-.1,9.3,3.6,14.2,7.6,14.2s4.6-2.1,4.6-5-2.8-5.8-5.2-7.7c-5.3-4.1-8.3-7-8.3-12.2s3.6-8.5,10.6-8.5l5.6.2c1.8,0,3.1-.3,3.6-1.2l.3.2c-.8,3.3-.8,8.6-1,13.5h-.2c-.5-8.7-4.3-12.2-7.3-12.2s-4.2,1.8-4.2,3.9c0,4.1,2.7,6.3,6.4,9.1s7.3,5.3,7.3,10.7-4.2,9.6-11.6,9.6c-2.9,0-5.8-1.1-7.7-1.1a2.2,2.2,0,0,0-2.2,1.1Z" fill="#231f20"/><path d="M287.5,43.7a2.5,2.5,0,0,0-2.5-1.8c-2.1,0-4.7,1.4-7,1.4-9.1,0-13.9-6.9-13.9-17.2s5.1-16.6,14-16.6c3,0,5.2.5,6.6.5a2.6,2.6,0,0,0,2.6-1.5l.3.3c-.9,3.2-.8,9-1,13.9h-.3c-.5-8.7-3.1-12.7-7.7-12.7-7.5,0-4.7,10.2-4.7,15.7s-3,17,4.7,17c5.6,0,7.3-8.5,7.9-14.6h.3c-.1,4.9.3,12.4,1.1,15.4Z" fill="#231f20"/><path d="M288.8,42.3h1c2.3,0,4-3,5.2-6.9l6.4-20.8c-.6-2.2-1.4-3.5-3-3.5v-.4c6,0,8.3-.5,8.8-3h.3a20.4,20.4,0,0,0,1.4,6.5l7.8,24.1c.9,2.9,1.7,4,4.2,4h.5v.5H304.5v-.5h1.4c2.3,0,3.5-1.3,2.7-4.1l-2.2-7.9h-9.1l-1.7,5.4c-1.4,4.5.3,6.6,2.5,6.6h1.2v.5H288.8Zm17.4-12.6L301.8,16h-.3l-4.1,13.7Z" fill="#231f20"/></svg>