<?xml version="1.0" encoding="utf-8"?>
<!-- Generator: Adobe Illustrator 22.0.1, SVG Export Plug-In . SVG Version: 6.00 Build 0)  -->
<svg version="1.1" id="Layer_1" xmlns="http://www.w3.org/2000/svg" xmlns:xlink="http://www.w3.org/1999/xlink" x="0px" y="0px"
	 viewBox="0 0 324 90" style="enable-background:new 0 0 324 90;" xml:space="preserve">
<style type="text/css">
	.st0{fill:#231F20;}
	.st1{fill:#B6836E;}
</style>
<g>
	<rect x="1.7" y="-31.8" class="st0" width="23.5" height="1.1"/>
	<rect x="38.1" y="-31.8" class="st0" width="105.2" height="1.1"/>
	<rect x="61.8" y="-102.5" class="st0" width="81.5" height="1.1"/>
	<rect x="261" y="-31.8" class="st0" width="59.2" height="1.1"/>
	<g>
		<path class="st0" d="M4.8-69.8h1.1c2.3,0,2.8-1.2,2.8-2.8v-26.3c0-1.6-0.5-2.8-2.8-2.8H4.8v-0.5h14.4c7.9,0,8-0.2,8.9-1.5l0.2,0.2
			c-0.4,2.6-0.3,7.7,0.1,12.7h-0.3c-0.9-8-3.7-11-9.4-11h-2.4v16.1c5.3,0,7.2-1.5,8.4-5.4l0.3,0.1c-0.6,3.8-0.8,8.6-0.8,13.3l-0.2,0
			c-0.2-5.4-2-7.7-7.6-7.7v11.6c0,2.8,0.8,3.8,3.5,3.8h2.2v0.5H4.8V-69.8z"/>
		<path class="st0" d="M49.1-77.2c-0.5-6.5,0.2-7.3-2-8.1c-1,0.1-2.1,0.2-3.3,0.2h-1.6v12.5c0,1.7,0.6,2.8,2.6,2.8h1.3v0.5H30.6
			v-0.5h1.1c2.3,0,2.8-1.2,2.8-2.8v-26.3c0-1.6-0.5-2.8-2.8-2.8h-1.1v-0.5H35c2,0,7.7-0.2,10.2-0.2c8.6,0,12.2,2.3,12.2,8.8
			c0,4.2-3.3,7.4-8.3,7.8v0.1c4.7,0.2,7.7,1.9,8.3,7.7c0.5,4.4,0,7.8,2.1,7.8c1.2,0,1.8-1.7,1.8-3.1c0-0.5,0-1-0.2-1.4
			c0-0.2,0.5-0.2,0.6,0c0.1,0.5,0.1,0.9,0.1,1.4c0,3-2.3,4.4-5.7,4.4C52.2-68.9,49.6-70.9,49.1-77.2z M48.8-93.3
			c0-3.8,1.1-8.6-4.3-8.6c-0.7,0-1.5,0.2-2.4,0.5v15.1c0.9,0.6,1.7,0.7,2.7,0.7C49.3-85.6,48.8-88.9,48.8-93.3z"/>
	</g>
	<path class="st0" d="M149.2-31.3c0.8-3.3,1.5-9.5,1.7-14.4h0.3c0,9.3,3.6,14.2,7.7,14.2c3.2,0,4.6-2.1,4.6-5c0-3.7-2.8-5.8-5.3-7.7
		c-5.3-4.1-8.3-7.1-8.3-12.3c0-4.9,3.6-8.5,10.7-8.5c2,0,3.9,0.2,5.5,0.2c1.8,0,3.1-0.2,3.7-1.2l0.3,0.2c-0.8,3.2-0.8,8.5-1,13.5
		h-0.3c-0.5-8.7-4.3-12.3-7.3-12.3c-3.2,0-4.1,1.8-4.1,3.9c0,4.1,2.6,6.3,6.3,9.1c3.5,2.6,7.3,5.4,7.3,10.7c0,5.6-4.1,9.7-11.6,9.7
		c-2.9,0-5.8-1.1-7.7-1.1c-1,0-1.7,0.3-2.2,1.1L149.2-31.3z"/>
	<path class="st0" d="M174.2-48.4c0-9.8,5.4-16.6,14-16.6c8.7,0,14,6.8,14,16.5c0,10.5-5.4,17.3-14,17.3
		C179.6-31.2,174.2-38,174.2-48.4z M193.3-48.8c0-5.6,3-15.7-5-15.7s-5,10.2-5,15.7c0,6.1-3,17.1,5,17.1S193.3-42.8,193.3-48.8z"/>
	<path class="st0" d="M208.3-44.4v-16.8c0-1.7-0.8-2.8-3.1-2.8h-0.8v-0.5h16.3v0.5h-0.8c-2.2,0-3.3,1.1-3.3,3.3v17.8
		c0,8.3,3.3,10.3,6.8,10.3c3.3,0,7-2.8,7-11.6v-15.1c0-3-1.1-4.7-3.8-4.7h-0.8v-0.5h9.4v0.5h-0.8c-2.4,0-3.5,1.9-3.5,4.7V-44
		c0,8.1-3.3,13-10.9,13C213.2-30.9,208.3-34.6,208.3-44.4z"/>
	<path class="st0" d="M254.3-39.6c-0.5-6.5,0.2-7.3-2-8.1c-1,0.1-2.1,0.2-3.3,0.2h-1.6v12.5c0,1.7,0.6,2.8,2.6,2.8h1.3v0.5h-15.5
		v-0.5h1.1c2.3,0,2.8-1.2,2.8-2.8v-26.3c0-1.6-0.5-2.8-2.8-2.8h-1.1v-0.5h4.4c2,0,7.7-0.2,10.2-0.2c8.6,0,12.2,2.3,12.2,8.8
		c0,4.2-3.3,7.4-8.3,7.8v0.1c4.7,0.2,7.7,1.9,8.3,7.7c0.5,4.4,0,8.3,2.1,8.3c1.2,0,1.5,0.4,2.1,0.4c0.5,0-2.1,1.1-5.6,1.1
		C257.3-30.5,254.9-33.2,254.3-39.6z M254.1-55.6c0-3.8,1.1-8.6-4.3-8.6c-0.7,0-1.5,0.2-2.4,0.5v15.1c0.9,0.6,1.7,0.7,2.7,0.7
		C254.5-47.9,254.1-51.3,254.1-55.6z"/>
	<g>
		<path class="st0" d="M20.9-59.5h-0.2v24.3c0,2.3,1,3.9,3.3,3.9h1.2v0.5h-9.3v-0.5h1c2.3,0,3.3-1.6,3.3-3.8l0-25.4
			c0-1.9-0.9-2.8-3-2.8h-0.8v-0.5h11.8l7.3,21.4h0.2l7-21.4h11v0.5h-0.7c-2.3,0-2.8,1-2.8,2.8v26.3c0,1.7,0.5,2.8,2.8,2.8h1v0.5
			H38.1v-0.5H39c2.3,0,3.3-1,3.3-2.7v-26H42l-9.9,29.8h-0.5L20.9-59.5z"/>
	</g>
	<g>
		<path class="st0" d="M54.9-44.5h1.5c3.4,0,5.9-4.4,7.7-10.1l9.3-30.6c-0.9-3.2-2.1-5-4.3-5.1v-0.6c8.8,0,12.1-0.8,12.8-4.3h0.6
			c-0.1,2.8,1,6.8,1.9,9.5l11.5,35.4c1.4,4.3,2.6,5.9,6.1,5.9h0.8v0.7H78v-0.7h2.1c3.4,0,5.2-1.9,4-6.1l-3.3-11.6H67.4l-2.5,7.9
			c-2,6.5,0.5,9.7,3.8,9.7h1.7v0.7H54.9V-44.5z M80.6-63L74-83.2h-0.3l-6,20.2H80.6z"/>
		<path class="st0" d="M107.7-84.2h-0.3v33.6c0,3.7,1.8,6,5.9,6h2.1v0.7h-15.1v-0.7h1.2c3.7,0,5.2-2.4,5.2-5.8v-37
			c0-2.6-1.2-4.1-4.6-4.1h-1.4v-0.7h15.9L136-63.5v-22.6c0-2.7-1.5-5.3-4.8-5.3h-2.1v-0.7h13.4v0.7h-1.2c-3.4,0-4.5,2.7-4.5,5.3
			v43.3h-0.3L107.7-84.2z"/>
	</g>
	<g>
		<path class="st0" d="M170.9-69.1c-0.5-1.4-1.5-1.8-2.6-1.8c-2,0-4.6,1.3-6.9,1.3c-9.1,0-13.9-6.9-13.9-17.1
			c0-9.8,5.1-16.6,14-16.6c3.1,0,5.2,0.4,6.6,0.4c1.2,0,2-0.3,2.5-1.4l0.3,0.2c-0.8,3.2-0.8,9-1,13.9h-0.3
			c-0.5-8.7-3.1-12.7-7.7-12.7c-7.5,0-4.7,10.2-4.7,15.7c0,5.9-3,17,4.7,17c5.5,0,7.3-8.5,7.9-14.6h0.3c-0.1,4.9,0.2,12.4,1.1,15.4
			L170.9-69.1z"/>
		<path class="st0" d="M174-70.5h1.1c2.3,0,2.8-1.2,2.8-2.8v-26.3c0-1.6-0.5-2.8-2.8-2.8H174v-0.5h15.3v0.5h-1
			c-1.9,0-2.6,1.2-2.6,2.8v12.3H196v-12.3c0-1.6-0.7-2.8-2.6-2.8h-1.1v-0.5h15.3v0.5h-1c-2.3,0-2.8,1.2-2.8,2.8v26.3
			c0,1.6,0.5,2.8,2.8,2.8h1v0.5h-15.3v-0.5h1.1c1.9,0,2.6-1.2,2.6-2.8v-13.4h-10.3v13.4c0,1.6,0.7,2.8,2.6,2.8h1v0.5H174V-70.5z"/>
		<path class="st0" d="M234-68c-0.8-1.8-1.7-2.1-11.1-2.1h-12.8v-0.5h1.1c2.3,0,2.8-1.2,2.8-2.8v-26.3c0-1.6-0.5-2.8-2.8-2.8h-1.1
			v-0.5h13.7c7.9,0,9-0.2,9.9-1.5l0.2,0.2c-0.4,2.6-0.7,8.1-0.3,12.9l-0.3,0.2c-1.2-7.9-1.8-11.4-8.2-11.4h-3.3V-88
			c5.3,0,6.2-1.3,7.2-5.4l0.3,0.1c-0.4,2.6-0.4,7.7,0.2,12.4l-0.3,0.2c-1-5.4-2-6.9-7.4-6.9v17h2.8c4.6,0,9-3.1,10.8-14.2h0.4
			c-0.9,4.6-1.5,10.7-1.5,16.7L234-68z"/>
		<path class="st0" d="M238-69.7c0.8-3.3,1.5-9.5,1.7-14.4h0.3c0,9.3,3.6,14.2,7.7,14.2c3.2,0,4.6-2.1,4.6-5c0-3.7-2.8-5.8-5.3-7.7
			c-5.3-4.1-8.3-7.1-8.3-12.3c0-4.9,3.6-8.5,10.7-8.5c2,0,3.9,0.2,5.5,0.2c1.8,0,3.1-0.2,3.7-1.2l0.3,0.2c-0.8,3.2-0.8,8.5-1,13.5
			h-0.3c-0.5-8.7-4.3-12.3-7.3-12.3c-3.2,0-4.1,1.8-4.1,3.9c0,4.1,2.6,6.3,6.3,9.1c3.5,2.6,7.3,5.4,7.3,10.7c0,5.6-4.1,9.7-11.6,9.7
			c-2.9,0-5.8-1.1-7.7-1.1c-1,0-1.7,0.3-2.2,1.1L238-69.7z"/>
		<path class="st0" d="M286.4-69.1c-0.5-1.4-1.5-1.8-2.6-1.8c-2,0-4.6,1.3-6.9,1.3c-9.1,0-13.9-6.9-13.9-17.1
			c0-9.8,5.1-16.6,14-16.6c3.1,0,5.2,0.4,6.6,0.4c1.2,0,2-0.3,2.5-1.4l0.3,0.2c-0.8,3.2-0.8,9-1,13.9h-0.3
			c-0.5-8.7-3.1-12.7-7.7-12.7c-7.5,0-4.7,10.2-4.7,15.7c0,5.9-3,17,4.7,17c5.5,0,7.3-8.5,7.9-14.6h0.3c-0.1,4.9,0.2,12.4,1.1,15.4
			L286.4-69.1z"/>
		<path class="st0" d="M287.7-70.5h1c2.3,0,4-3,5.3-6.9l6.3-20.9c-0.6-2.2-1.4-3.4-3-3.5v-0.4c6,0,8.3-0.5,8.7-3h0.4
			c0,1.9,0.7,4.6,1.3,6.5l7.8,24.1c0.9,2.9,1.7,4,4.2,4h0.5v0.5h-16.9v-0.5h1.4c2.3,0,3.5-1.3,2.7-4.1l-2.3-7.9h-9.1l-1.7,5.4
			c-1.4,4.5,0.3,6.6,2.6,6.6h1.2v0.5h-10.6V-70.5z M305.1-83.1l-4.5-13.8h-0.2l-4.1,13.8H305.1z"/>
	</g>
</g>
<g>
	<path class="st0" d="M164.7,409.2h1.9c4.2,0,7.3-5.5,9.5-12.7l11.4-38.4c-1.1-4.1-2.5-6.3-5.3-6.4V351c10.8,0,14.9-1,15.7-5.4h0.7
		c-0.1,3.5,1.3,8.6,2.4,11.9l14.1,44.3c1.7,5.4,3.1,7.3,7.5,7.3h0.9v0.9H193v-0.9h2.5c4.1,0,6.3-2.4,4.9-7.6l-4.1-14.5H180l-3,9.9
		c-2.4,8.2,0.6,12.2,4.6,12.2h2.1v0.9h-19V409.2z M196.1,386l-8-25.3h-0.4l-7.4,25.3H196.1z"/>
</g>
<g>
	<path class="st0" d="M215.1,359.5h-0.3v42.2c0,4.6,2.2,7.5,7.2,7.5h2.5v0.9H206v-0.9h1.4c4.6,0,6.3-3,6.3-7.3v-46.3
		c0-3.2-1.5-5.2-5.7-5.2h-1.8v-0.9h19.4l24.1,35.9v-28.3c0-3.4-1.9-6.7-5.9-6.7h-2.5v-0.9h16.4v0.9h-1.4c-4.1,0-5.5,3.4-5.5,6.7
		v54.3h-0.4L215.1,359.5z"/>
</g>
<text transform="matrix(0.7144 -7.871702e-02 0.1095 0.994 85.0297 431.9657)" class="st0" style="font-family:'FloodStd'; font-size:88.7767px;">an</text>
<text transform="matrix(1 0 0 1 61.2389 419.0342)" class="st0" style="font-family:'AtramentLight-Regular'; font-size:102.2555px;">AN</text>
<text transform="matrix(1 0 0 1 -53.4459 404.7937)" class="st0" style="font-family:'BebasNeue'; font-size:102.2555px;">an</text>
<g>
	<g>
		<path class="st0" d="M481.5-86.3h1.1c2.3,0,2.8-1.2,2.8-2.8v-26.3c0-1.6-0.5-2.8-2.8-2.8h-1.1v-0.5h14.4c7.9,0,8-0.2,8.9-1.5
			l0.2,0.2c-0.4,2.6-0.3,7.7,0.1,12.7h-0.3c-0.9-8-3.7-11-9.4-11h-2.4v16.1c5.3,0,7.2-1.5,8.4-5.4l0.3,0.1
			c-0.6,3.8-0.8,8.6-0.8,13.3l-0.2,0c-0.2-5.4-2-7.7-7.6-7.7V-90c0,2.8,0.8,3.8,3.5,3.8h2.2v0.5h-17.3V-86.3z"/>
		<path class="st0" d="M525.8-93.7c-0.5-6.5,0.2-7.3-2-8.1c-1,0.1-2.1,0.2-3.3,0.2h-1.6v12.5c0,1.7,0.6,2.8,2.6,2.8h1.3v0.5h-15.5
			v-0.5h1.1c2.3,0,2.8-1.2,2.8-2.8v-26.3c0-1.6-0.5-2.8-2.8-2.8h-1.1v-0.5h4.4c2,0,7.7-0.2,10.2-0.2c8.6,0,12.2,2.3,12.2,8.8
			c0,4.2-3.3,7.4-8.3,7.8v0.1c4.7,0.2,7.7,1.9,8.3,7.7c0.5,4.4,0,7.8,2.1,7.8c1.2,0,1.8-1.7,1.8-3.1c0-0.5,0-1-0.2-1.4
			c0-0.2,0.5-0.2,0.6,0c0.1,0.5,0.1,0.9,0.1,1.4c0,3-2.3,4.4-5.7,4.4C528.8-85.4,526.3-87.4,525.8-93.7z M525.5-109.8
			c0-3.8,1.1-8.6-4.3-8.6c-0.7,0-1.5,0.2-2.4,0.5v15.1c0.9,0.6,1.7,0.7,2.7,0.7C525.9-102.1,525.5-105.4,525.5-109.8z"/>
	</g>
	<path class="st0" d="M613.8-47.8c0.8-3.3,1.5-9.5,1.7-14.4h0.3c0,9.3,3.6,14.2,7.7,14.2c3.2,0,4.6-2.1,4.6-5c0-3.7-2.8-5.8-5.3-7.7
		c-5.3-4.1-8.3-7.1-8.3-12.3c0-4.9,3.6-8.5,10.7-8.5c2,0,3.9,0.2,5.5,0.2c1.8,0,3.1-0.2,3.7-1.2l0.3,0.2c-0.8,3.2-0.8,8.5-1,13.5
		h-0.3c-0.5-8.7-4.3-12.3-7.3-12.3c-3.2,0-4.1,1.8-4.1,3.9c0,4.1,2.6,6.3,6.3,9.1c3.5,2.6,7.3,5.4,7.3,10.7c0,5.6-4.1,9.7-11.6,9.7
		c-2.9,0-5.8-1.1-7.7-1.1c-1,0-1.7,0.3-2.2,1.1L613.8-47.8z"/>
	<path class="st0" d="M638.9-64.9c0-9.8,5.4-16.6,14-16.6c8.7,0,14,6.8,14,16.5c0,10.5-5.4,17.3-14,17.3
		C644.2-47.7,638.9-54.5,638.9-64.9z M657.9-65.3c0-5.6,3-15.7-5-15.7c-8,0-5,10.2-5,15.7c0,6.1-3,17.1,5,17.1
		C660.9-48.2,657.9-59.3,657.9-65.3z"/>
	<path class="st0" d="M672.9-60.9v-16.8c0-1.7-0.8-2.8-3.1-2.8h-0.8V-81h16.3v0.5h-0.8c-2.2,0-3.3,1.1-3.3,3.3v17.8
		c0,8.3,3.3,10.3,6.8,10.3c3.3,0,7-2.8,7-11.6v-15.1c0-3-1.1-4.7-3.8-4.7h-0.8V-81h9.4v0.5H699c-2.4,0-3.5,1.9-3.5,4.7v15.4
		c0,8.1-3.3,13-10.9,13C677.8-47.4,672.9-51.1,672.9-60.9z"/>
	<g>
		<path class="st0" d="M499.6-76h-0.2v24.3c0,2.3,1,3.9,3.3,3.9h1.2v0.5h-9.3v-0.5h1c2.3,0,3.3-1.6,3.3-3.8l0-25.4
			c0-1.9-0.9-2.8-3-2.8h-0.8v-0.5h11.8l7.3,21.4h0.2l7-21.4h11v0.5h-0.7c-2.3,0-2.8,1-2.8,2.8v26.3c0,1.7,0.5,2.8,2.8,2.8h1v0.5
			h-15.8v-0.5h0.9c2.3,0,3.3-1,3.3-2.7v-26h-0.3l-9.9,29.8h-0.5L499.6-76z"/>
	</g>
	<g>
		<path class="st0" d="M635.5-85.6c-0.5-1.4-1.5-1.8-2.6-1.8c-2,0-4.6,1.3-6.9,1.3c-9.1,0-13.9-6.9-13.9-17.1
			c0-9.8,5.1-16.6,14-16.6c3.1,0,5.2,0.4,6.6,0.4c1.2,0,2-0.3,2.5-1.4l0.3,0.2c-0.8,3.2-0.8,9-1,13.9h-0.3
			c-0.5-8.7-3.1-12.7-7.7-12.7c-7.5,0-4.7,10.2-4.7,15.7c0,5.9-3,17,4.7,17c5.5,0,7.3-8.5,7.9-14.6h0.3c-0.1,4.9,0.2,12.4,1.1,15.4
			L635.5-85.6z"/>
		<path class="st0" d="M638.6-87h1.1c2.3,0,2.8-1.2,2.8-2.8v-26.3c0-1.6-0.5-2.8-2.8-2.8h-1.1v-0.5h15.3v0.5h-1
			c-1.9,0-2.6,1.2-2.6,2.8v12.3h10.3v-12.3c0-1.6-0.7-2.8-2.6-2.8H657v-0.5h15.3v0.5h-1c-2.3,0-2.8,1.2-2.8,2.8v26.3
			c0,1.6,0.5,2.8,2.8,2.8h1v0.5H657V-87h1.1c1.9,0,2.6-1.2,2.6-2.8v-13.4h-10.3v13.4c0,1.6,0.7,2.8,2.6,2.8h1v0.5h-15.3V-87z"/>
		<path class="st0" d="M698.7-84.5c-0.8-1.8-1.7-2.1-11.1-2.1h-12.8V-87h1.1c2.3,0,2.8-1.2,2.8-2.8v-26.3c0-1.6-0.5-2.8-2.8-2.8
			h-1.1v-0.5h13.7c7.9,0,9-0.2,9.9-1.5l0.2,0.2c-0.4,2.6-0.7,8.1-0.3,12.9l-0.3,0.2c-1.2-7.9-1.8-11.4-8.2-11.4h-3.3v14.4
			c5.3,0,6.2-1.3,7.2-5.4l0.3,0.1c-0.4,2.6-0.4,7.7,0.2,12.4l-0.3,0.2c-1-5.4-2-6.9-7.4-6.9v17h2.8c4.6,0,9-3.1,10.8-14.2h0.4
			c-0.9,4.6-1.5,10.7-1.5,16.7L698.7-84.5z"/>
		<path class="st0" d="M702.6-86.2c0.8-3.3,1.5-9.5,1.7-14.4h0.3c0,9.3,3.6,14.2,7.7,14.2c3.2,0,4.6-2.1,4.6-5
			c0-3.7-2.8-5.8-5.3-7.7c-5.3-4.1-8.3-7.1-8.3-12.3c0-4.9,3.6-8.5,10.7-8.5c2,0,3.9,0.2,5.5,0.2c1.8,0,3.1-0.2,3.7-1.2l0.3,0.2
			c-0.8,3.2-0.8,8.5-1,13.5h-0.3c-0.5-8.7-4.3-12.3-7.3-12.3c-3.2,0-4.1,1.8-4.1,3.9c0,4.1,2.6,6.3,6.3,9.1
			c3.5,2.6,7.3,5.4,7.3,10.7c0,5.6-4.1,9.7-11.6,9.7c-2.9,0-5.8-1.1-7.7-1.1c-1,0-1.7,0.3-2.2,1.1L702.6-86.2z"/>
		<path class="st0" d="M751.1-85.6c-0.5-1.4-1.5-1.8-2.6-1.8c-2,0-4.6,1.3-6.9,1.3c-9.1,0-13.9-6.9-13.9-17.1
			c0-9.8,5.1-16.6,14-16.6c3.1,0,5.2,0.4,6.6,0.4c1.2,0,2-0.3,2.5-1.4l0.3,0.2c-0.8,3.2-0.8,9-1,13.9h-0.3
			c-0.5-8.7-3.1-12.7-7.7-12.7c-7.5,0-4.7,10.2-4.7,15.7c0,5.9-3,17,4.7,17c5.5,0,7.3-8.5,7.9-14.6h0.3c-0.1,4.9,0.2,12.4,1.1,15.4
			L751.1-85.6z"/>
		<path class="st0" d="M752.3-87h1c2.3,0,4-3,5.3-6.9l6.3-20.9c-0.6-2.2-1.4-3.4-3-3.5v-0.4c6,0,8.3-0.5,8.7-3h0.4
			c0,1.9,0.7,4.6,1.3,6.5l7.8,24.1c0.9,2.9,1.7,4,4.2,4h0.5v0.5H768V-87h1.4c2.3,0,3.5-1.3,2.7-4.1l-2.3-7.9h-9.1l-1.7,5.4
			c-1.4,4.5,0.3,6.6,2.6,6.6h1.2v0.5h-10.6V-87z M769.8-99.6l-4.5-13.8h-0.2L761-99.6H769.8z"/>
	</g>
	<g>
		<path class="st0" d="M564.5-48.5l-2.3-14.7h-14.4l-2.3,14.7c-0.1,0.8-0.5,1.5-1.5,1.5h-3.6c-0.9,0-1.3-0.7-1.2-1.6l10.6-68.3
			c0.1-1,0.6-1.6,1.7-1.6h6.9c1.1,0,1.6,0.6,1.7,1.6l10.6,68.3c0.1,1-0.4,1.6-1.2,1.6H566C565.1-47,564.6-47.6,564.5-48.5z
			 M548.6-68.7h12.7l-4-26.8l-2.1-16.8h-0.4l-2.1,16.8L548.6-68.7z"/>
		<path class="st0" d="M597.1-116.9c0-1,0.5-1.5,1.5-1.5h3.2c1,0,1.5,0.5,1.5,1.5v68.5c0,1-0.5,1.5-1.5,1.5H597
			c-1,0-1.4-0.4-1.7-1.5l-10.7-42.2l-3-13.6h-0.4l0.6,14v41.8c0,1-0.5,1.5-1.5,1.5h-3.2c-1,0-1.5-0.5-1.5-1.5v-68.5
			c0-1,0.5-1.5,1.5-1.5h4.7c1,0,1.4,0.4,1.7,1.5l10.7,42.2l3,13.6h0.4l-0.6-14V-116.9z"/>
	</g>
	<path class="st0" d="M555.2-118.4h-7.7c0,0,2.3,0.7,2.3,2.7L555.2-118.4z"/>
	<path class="st0" d="M581.3-118.4h-7.7c0,0,2.3,0.7,2.3,2.7L581.3-118.4z"/>
	<path class="st0" d="M597.7-47h7.7c0,0-2.3-0.7-2.3-2.7L597.7-47z"/>
	<path class="st0" d="M577.4-47h6.7c0,0-2.3-0.7-2.3-2.7L577.4-47z"/>
	<path class="st0" d="M541.3-47h6.7c0,0-2.3-0.7-2.3-2.7L541.3-47z"/>
	<path class="st0" d="M566.1-47h6.7c0,0-2.3-0.7-2.3-2.7L566.1-47z"/>
	<path class="st0" d="M599.7-118.4h5.7c0,0-2.3,0.7-2.3,2.7L599.7-118.4z"/>
	<path class="st0" d="M718.9-56.2c-0.5-6.5,0.2-7.3-2-8.1c-1,0.1-2.1,0.2-3.3,0.2H712v12.5c0,1.7,0.6,2.8,2.6,2.8h1.3v0.5h-15.5
		v-0.5h1.1c2.3,0,2.8-1.2,2.8-2.8v-26.3c0-1.6-0.5-2.8-2.8-2.8h-1.1v-0.5h4.4c2,0,7.7-0.2,10.2-0.2c8.6,0,12.2,2.3,12.2,8.8
		c0,4.2-3.3,7.4-8.3,7.8v0.1c4.7,0.2,7.7,1.9,8.3,7.7c0.5,4.4,0,7.8,2.1,7.8c1.2,0,1.8-1.7,1.8-3.1c0-0.5,0-1-0.2-1.4
		c0-0.2,0.5-0.2,0.6,0c0.1,0.5,0.1,0.9,0.1,1.4c0,3-2.3,4.4-5.7,4.4C722-47.8,719.4-49.8,718.9-56.2z M718.6-72.2
		c0-3.8,1.1-8.6-4.3-8.6c-0.7,0-1.5,0.2-2.4,0.5v15.1c0.9,0.6,1.7,0.7,2.7,0.7C719.1-64.5,718.6-67.9,718.6-72.2z"/>
</g>
<g>
	<path class="st0" d="M-819,50.5h1.7c3.7,0,4.4-1.8,4.4-4.4V4.8c0-2.6-0.7-4.4-4.4-4.4h-1.7v-0.7h22.7c12.4,0,12.6-0.4,14-2.4
		l0.4,0.4c-0.6,4.1-0.5,12.2,0.2,20h-0.4c-1.5-12.5-5.8-17.3-14.8-17.3h-3.8v25.2c8.3,0.1,11.3-2.4,13.1-8.5l0.4,0.2
		c-1,5.9-1.3,13.6-1.3,21l-0.4,0.1c-0.4-8.4-3.1-12-12-12v18.3c0,4.4,1.2,5.9,5.5,5.9h3.4v0.7H-819V50.5z"/>
	<path class="st0" d="M-749.4,38.8c-0.8-10.3,0.3-11.5-3.1-12.7c-1.6,0.1-3.3,0.3-5.2,0.3h-2.6v19.7c0,2.7,1,4.4,4.1,4.4h2v0.7
		h-24.4v-0.7h1.7c3.7,0,4.4-1.8,4.4-4.4V4.8c0-2.6-0.7-4.4-4.4-4.4h-1.7v-0.7h6.9c3.2,0,12-0.4,16.1-0.4c13.5,0,19.2,3.7,19.2,13.8
		c0,6.6-5.2,11.7-13,12.3v0.2c7.5,0.4,12,3,13,12.1c0.7,6.9,0,12.2,3.3,12.2c1.9,0,2.8-2.7,2.8-4.9c0-0.8-0.1-1.6-0.4-2.1
		c0.1-0.3,0.7-0.4,1,0c0.1,0.7,0.2,1.5,0.2,2.1c0,4.6-3.5,6.9-8.9,6.9C-744.6,51.8-748.6,48.7-749.4,38.8z M-749.8,13.5
		c0-5.9,1.8-13.6-6.7-13.6c-1.1,0-2.4,0.3-3.8,0.8v23.8c1.4,1,2.7,1.1,4.3,1.1C-749.2,25.7-749.8,20.4-749.8,13.5z"/>
</g>
<path class="st0" d="M-584.2,110c1.3-5.2,2.4-14.9,2.7-22.7h0.4c-0.1,14.6,5.6,22.3,12,22.3c5.1,0,7.2-3.3,7.2-7.8
	c0-5.8-4.4-9.1-8.3-12c-8.3-6.5-13.1-11.1-13.1-19.3c0-7.7,5.7-13.4,16.8-13.4c3.2,0,6.2,0.3,8.7,0.3c2.8,0,4.9-0.4,5.8-1.8l0.4,0.4
	c-1.3,5.1-1.3,13.4-1.5,21.2h-0.4c-0.7-13.7-6.7-19.3-11.4-19.3c-5,0-6.5,2.9-6.5,6.2c0,6.5,4.1,9.9,10,14.2
	c5.5,4.1,11.4,8.4,11.4,16.8c0,8.8-6.5,15.2-18.2,15.2c-4.5,0-9.1-1.8-12.2-1.8c-1.5,0-2.7,0.4-3.5,1.8L-584.2,110z"/>
<path class="st0" d="M-544.9,83.2c0-15.3,8.4-26.1,22.1-26.1c13.7,0,22.1,10.7,22.1,26c0,16.5-8.4,27.2-22.1,27.2
	C-536.5,110.3-544.9,99.6-544.9,83.2z M-514.9,82.6c0-8.8,4.6-24.7-7.9-24.7c-12.5,0-7.8,16-7.8,24.7c0,9.5-4.7,26.9,7.8,26.9
	C-510.3,109.5-514.9,92-514.9,82.6z"/>
<path class="st0" d="M-491.4,89.5V63c0-2.7-1.3-4.4-4.9-4.4h-1.3v-0.7h25.6v0.7h-1.3c-3.4,0-5.2,1.7-5.2,5.2v28
	c0,13.1,5.2,16.2,10.7,16.2c5.2,0,11.1-4.4,11.1-18.3V66c0-4.6-1.7-7.4-5.9-7.4h-1.3v-0.7h14.8v0.7h-1.3c-3.8,0-5.5,3-5.5,7.4v24.2
	c0,12.7-5.2,20.4-17.2,20.4C-483.7,110.6-491.4,104.9-491.4,89.5z"/>
<g>
	<path class="st0" d="M-811,66.6h-0.4v38.2c0,3.7,1.6,6.1,5.2,6.1h1.8v0.7H-819v-0.7h1.6c3.6,0,5.2-2.4,5.2-5.9l-0.1-39.9
		c0-3-1.4-4.4-4.6-4.4h-1.3V60h18.5l11.4,33.6h0.4L-777,60h17.3v0.7h-1.1c-3.7,0-4.4,1.6-4.4,4.4v41.4c0,2.7,0.8,4.4,4.4,4.4h1.6
		v0.7H-784v-0.7h1.5c3.6,0,5.2-1.6,5.2-4.2V65.9h-0.5l-15.6,46.9h-0.7L-811,66.6z"/>
</g>
<g>
	<path class="st0" d="M-529.7,50.7c-0.8-2.1-2.3-2.8-4.1-2.8c-3.2,0-7.3,2.1-10.8,2.1c-14.3,0-21.9-10.8-21.9-26.9
		c0-15.3,8-26,22-26c4.8,0,8.1,0.7,10.4,0.7c1.9,0,3.2-0.5,4-2.2l0.5,0.4c-1.3,5.1-1.3,14.2-1.5,21.9h-0.5c-0.7-13.7-4.8-20-12.1-20
		c-11.7,0-7.4,16-7.4,24.7c0,9.3-4.7,26.6,7.5,26.6c8.7,0,11.5-13.3,12.4-23h0.5c-0.2,7.7,0.4,19.6,1.7,24.2L-529.7,50.7z"/>
	<path class="st0" d="M-524.8,48.5h1.7c3.7,0,4.4-1.8,4.4-4.4V2.7c0-2.6-0.7-4.4-4.4-4.4h-1.7v-0.7h24v0.7h-1.6
		c-3,0-4.1,1.8-4.1,4.4v19.3h16.2V2.7c0-2.6-1.1-4.4-4.1-4.4h-1.7v-0.7h24v0.7h-1.6c-3.7,0-4.4,1.8-4.4,4.4v41.3
		c0,2.5,0.7,4.4,4.4,4.4h1.6v0.7h-24v-0.7h1.7c3,0,4.1-1.8,4.1-4.4V22.9h-16.2v21.1c0,2.5,1.1,4.4,4.1,4.4h1.6v0.7h-24V48.5z"/>
	<path class="st0" d="M-430.5,52.5c-1.2-2.9-2.7-3.2-17.4-3.2H-468v-0.7h1.7c3.7,0,4.4-1.8,4.4-4.4V2.7c0-2.6-0.7-4.4-4.4-4.4h-1.7
		v-0.7h21.5c12.4,0,14.2-0.4,15.6-2.4l0.3,0.4c-0.7,4.1-1,12.8-0.4,20.3l-0.5,0.4c-1.8-12.5-2.9-17.9-12.9-17.9h-5.2V21
		c8.3,0.1,9.7-2.1,11.3-8.5l0.4,0.2c-0.7,4.1-0.7,12,0.3,19.6l-0.4,0.4c-1.5-8.5-3.1-10.9-11.6-10.9v26.8h4.4
		c7.3,0,14.2-4.9,17-22.4h0.6c-1.4,7.3-2.4,16.8-2.4,26.3L-430.5,52.5z"/>
	<path class="st0" d="M-424.3,49.7c1.3-5.2,2.4-14.9,2.7-22.7h0.4c-0.1,14.6,5.6,22.3,12,22.3c5.1,0,7.2-3.3,7.2-7.8
		c0-5.8-4.4-9.1-8.3-12c-8.3-6.5-13.1-11.1-13.1-19.3c0-7.7,5.7-13.4,16.8-13.4c3.2,0,6.2,0.3,8.7,0.3c2.8,0,4.9-0.4,5.8-1.8
		l0.4,0.4c-1.3,5.1-1.3,13.4-1.5,21.2h-0.4c-0.7-13.7-6.7-19.3-11.4-19.3c-5,0-6.5,2.9-6.5,6.2c0,6.5,4.1,9.9,10,14.2
		c5.5,4.1,11.4,8.4,11.4,16.8c0,8.8-6.5,15.2-18.2,15.2c-4.5,0-9.1-1.8-12.2-1.8c-1.5,0-2.7,0.4-3.5,1.8L-424.3,49.7z"/>
	<path class="st0" d="M-348.1,50.7c-0.8-2.1-2.3-2.8-4.1-2.8c-3.2,0-7.3,2.1-10.8,2.1c-14.3,0-21.9-10.8-21.9-26.9
		c0-15.3,8-26,22-26c4.8,0,8.1,0.7,10.4,0.7c1.9,0,3.2-0.5,4-2.2l0.5,0.4c-1.3,5.1-1.3,14.2-1.5,21.9h-0.5c-0.7-13.7-4.8-20-12.1-20
		c-11.7,0-7.4,16-7.4,24.7c0,9.3-4.7,26.6,7.5,26.6c8.7,0,11.5-13.3,12.4-23h0.5c-0.2,7.7,0.4,19.6,1.7,24.2L-348.1,50.7z"/>
	<path class="st0" d="M-346.2,48.5h1.6c3.7,0,6.3-4.7,8.3-10.8l10-32.8c-1-3.5-2.2-5.4-4.6-5.5v-0.6c9.4,0,13-0.8,13.7-4.6h0.6
		c-0.1,3,1.1,7.3,2.1,10.2l12.3,37.9c1.5,4.6,2.7,6.3,6.6,6.3h0.8v0.7h-26.6v-0.7h2.2c3.6,0,5.5-2.1,4.3-6.5l-3.5-12.4h-14.3
		l-2.7,8.5c-2.1,7,0.5,10.4,4.1,10.4h1.8v0.7h-16.6V48.5z M-318.7,28.7l-7-21.6h-0.4l-6.4,21.6H-318.7z"/>
</g>
<path class="st0" d="M-419.1,96.9c-0.8-10.3,0.3-11.5-3.1-12.7c-1.6,0.1-3.3,0.3-5.2,0.3h-2.6v19.7c0,2.7,1,4.4,4.1,4.4h2v0.7h-24.4
	v-0.7h1.7c3.7,0,4.4-1.8,4.4-4.4V62.9c0-2.6-0.7-4.4-4.4-4.4h-1.7v-0.7h6.9c3.2,0,12-0.4,16.1-0.4c13.5,0,19.2,3.7,19.2,13.8
	c0,6.6-5.2,11.7-13,12.3v0.2c7.5,0.4,12,3,13,12.1c0.7,6.9,0,12.2,3.3,12.2c1.9,0,2.8-2.7,2.8-4.9c0-0.8-0.1-1.6-0.4-2.1
	c0.1-0.3,0.7-0.4,1,0c0.1,0.7,0.2,1.5,0.2,2.1c0,4.6-3.5,6.9-8.9,6.9C-414.3,110-418.3,106.9-419.1,96.9z M-419.5,71.7
	c0-5.9,1.8-13.6-6.7-13.6c-1.1,0-2.4,0.3-3.8,0.8v23.8c1.4,1,2.7,1.1,4.3,1.1C-418.9,83.8-419.5,78.6-419.5,71.7z"/>
<g>
	<g>
		<path class="st0" d="M455.7-223.2h0.5c1.1,0,1.3-0.6,1.3-1.3V-237c0-0.8-0.2-1.3-1.3-1.3h-0.5v-0.2h6.8c3.7,0,3.8-0.1,4.2-0.7
			l0.1,0.1c-0.2,1.2-0.2,3.7,0.1,6h-0.1c-0.4-3.8-1.7-5.2-4.5-5.2h-1.1v7.6c2.5,0,3.4-0.7,4-2.6l0.1,0.1c-0.3,1.8-0.4,4.1-0.4,6.3
			l-0.1,0c-0.1-2.5-0.9-3.6-3.6-3.6v5.5c0,1.3,0.4,1.8,1.7,1.8h1v0.2h-8.2V-223.2z"/>
		<path class="st0" d="M476.7-226.7c-0.2-3.1,0.1-3.5-0.9-3.8c-0.5,0-1,0.1-1.6,0.1h-0.8v5.9c0,0.8,0.3,1.3,1.2,1.3h0.6v0.2h-7.4
			v-0.2h0.5c1.1,0,1.3-0.6,1.3-1.3V-237c0-0.8-0.2-1.3-1.3-1.3h-0.5v-0.2h2.1c1,0,3.6-0.1,4.9-0.1c4.1,0,5.8,1.1,5.8,4.2
			c0,2-1.6,3.5-3.9,3.7v0.1c2.3,0.1,3.6,0.9,3.9,3.7c0.2,2.1,0,3.7,1,3.7c0.6,0,0.8-0.8,0.8-1.5c0-0.2,0-0.5-0.1-0.6
			c0-0.1,0.2-0.1,0.3,0c0,0.2,0.1,0.4,0.1,0.6c0,1.4-1.1,2.1-2.7,2.1C478.2-222.8,477-223.7,476.7-226.7z M476.6-234.3
			c0-1.8,0.5-4.1-2-4.1c-0.3,0-0.7,0.1-1.1,0.2v7.2c0.4,0.3,0.8,0.3,1.3,0.3C476.8-230.7,476.6-232.3,476.6-234.3z"/>
	</g>
	<path class="st0" d="M518.5-204.9c0.4-1.6,0.7-4.5,0.8-6.8h0.1c0,4.4,1.7,6.7,3.6,6.7c1.5,0,2.2-1,2.2-2.4c0-1.7-1.3-2.7-2.5-3.6
		c-2.5-2-3.9-3.4-3.9-5.8c0-2.3,1.7-4,5.1-4c1,0,1.9,0.1,2.6,0.1c0.8,0,1.5-0.1,1.7-0.6l0.1,0.1c-0.4,1.5-0.4,4.1-0.5,6.4h-0.1
		c-0.2-4.1-2-5.8-3.5-5.8c-1.5,0-2,0.9-2,1.9c0,2,1.2,3,3,4.3c1.7,1.2,3.5,2.5,3.5,5.1c0,2.7-2,4.6-5.5,4.6c-1.4,0-2.7-0.5-3.7-0.5
		c-0.5,0-0.8,0.1-1,0.5L518.5-204.9z"/>
	<path class="st0" d="M530.4-213c0-4.6,2.5-7.9,6.7-7.9c4.1,0,6.7,3.2,6.7,7.8c0,5-2.5,8.2-6.7,8.2
		C532.9-204.9,530.4-208.1,530.4-213z M539.4-213.2c0-2.7,1.4-7.5-2.4-7.5s-2.4,4.8-2.4,7.5c0,2.9-1.4,8.1,2.4,8.1
		S539.4-210.4,539.4-213.2z"/>
	<path class="st0" d="M546.5-211.1v-8c0-0.8-0.4-1.3-1.5-1.3h-0.4v-0.2h7.7v0.2H552c-1,0-1.6,0.5-1.6,1.6v8.5c0,3.9,1.6,4.9,3.2,4.9
		c1.6,0,3.3-1.3,3.3-5.5v-7.2c0-1.4-0.5-2.2-1.8-2.2h-0.4v-0.2h4.5v0.2h-0.4c-1.2,0-1.6,0.9-1.6,2.2v7.3c0,3.8-1.6,6.2-5.2,6.2
		C548.9-204.7,546.5-206.5,546.5-211.1z"/>
	<g>
		<path class="st0" d="M464.3-218.3h-0.1v11.5c0,1.1,0.5,1.8,1.6,1.8h0.6v0.2h-4.4v-0.2h0.5c1.1,0,1.6-0.7,1.6-1.8l0-12
			c0-0.9-0.4-1.3-1.4-1.3h-0.4v-0.2h5.6l3.5,10.1h0.1l3.3-10.1h5.2v0.2h-0.3c-1.1,0-1.3,0.5-1.3,1.3v12.5c0,0.8,0.2,1.3,1.3,1.3h0.5
			v0.2h-7.5v-0.2h0.4c1.1,0,1.6-0.5,1.6-1.3v-12.3h-0.2l-4.7,14.2h-0.2L464.3-218.3z"/>
	</g>
	<g>
		<path class="st0" d="M528.8-222.8c-0.2-0.6-0.7-0.8-1.2-0.8c-1,0-2.2,0.6-3.3,0.6c-4.3,0-6.6-3.3-6.6-8.1c0-4.6,2.4-7.9,6.6-7.9
			c1.4,0,2.5,0.2,3.1,0.2c0.6,0,1-0.2,1.2-0.7l0.2,0.1c-0.4,1.5-0.4,4.3-0.5,6.6h-0.2c-0.2-4.1-1.4-6-3.7-6c-3.5,0-2.2,4.8-2.2,7.5
			c0,2.8-1.4,8,2.3,8c2.6,0,3.5-4,3.7-6.9h0.2c-0.1,2.3,0.1,5.9,0.5,7.3L528.8-222.8z"/>
		<path class="st0" d="M530.3-223.5h0.5c1.1,0,1.3-0.6,1.3-1.3v-12.5c0-0.8-0.2-1.3-1.3-1.3h-0.5v-0.2h7.2v0.2H537
			c-0.9,0-1.2,0.6-1.2,1.3v5.8h4.9v-5.8c0-0.8-0.3-1.3-1.2-1.3H539v-0.2h7.2v0.2h-0.5c-1.1,0-1.3,0.6-1.3,1.3v12.5
			c0,0.8,0.2,1.3,1.3,1.3h0.5v0.2H539v-0.2h0.5c0.9,0,1.2-0.6,1.2-1.3v-6.4h-4.9v6.4c0,0.8,0.3,1.3,1.2,1.3h0.5v0.2h-7.2V-223.5z"/>
		<path class="st0" d="M558.8-222.3c-0.4-0.9-0.8-1-5.3-1h-6.1v-0.2h0.5c1.1,0,1.3-0.6,1.3-1.3v-12.5c0-0.8-0.2-1.3-1.3-1.3h-0.5
			v-0.2h6.5c3.7,0,4.3-0.1,4.7-0.7l0.1,0.1c-0.2,1.2-0.3,3.9-0.1,6.1l-0.2,0.1c-0.6-3.8-0.9-5.4-3.9-5.4h-1.6v6.8
			c2.5,0,2.9-0.6,3.4-2.6l0.1,0.1c-0.2,1.2-0.2,3.6,0.1,5.9l-0.1,0.1c-0.5-2.6-0.9-3.3-3.5-3.3v8.1h1.3c2.2,0,4.3-1.5,5.1-6.8h0.2
			c-0.4,2.2-0.7,5.1-0.7,7.9L558.8-222.3z"/>
		<path class="st0" d="M560.6-223.1c0.4-1.6,0.7-4.5,0.8-6.8h0.1c0,4.4,1.7,6.7,3.6,6.7c1.5,0,2.2-1,2.2-2.4c0-1.7-1.3-2.7-2.5-3.6
			c-2.5-2-3.9-3.4-3.9-5.8c0-2.3,1.7-4,5.1-4c1,0,1.9,0.1,2.6,0.1c0.8,0,1.5-0.1,1.7-0.6l0.1,0.1c-0.4,1.5-0.4,4.1-0.5,6.4h-0.1
			c-0.2-4.1-2-5.8-3.5-5.8c-1.5,0-2,0.9-2,1.9c0,2,1.2,3,3,4.3c1.7,1.2,3.5,2.5,3.5,5.1c0,2.7-2,4.6-5.5,4.6c-1.4,0-2.7-0.5-3.7-0.5
			c-0.5,0-0.8,0.1-1,0.5L560.6-223.1z"/>
		<path class="st0" d="M583.6-222.8c-0.2-0.6-0.7-0.8-1.2-0.8c-1,0-2.2,0.6-3.3,0.6c-4.3,0-6.6-3.3-6.6-8.1c0-4.6,2.4-7.9,6.6-7.9
			c1.4,0,2.5,0.2,3.1,0.2c0.6,0,1-0.2,1.2-0.7l0.2,0.1c-0.4,1.5-0.4,4.3-0.5,6.6H583c-0.2-4.1-1.4-6-3.7-6c-3.5,0-2.2,4.8-2.2,7.5
			c0,2.8-1.4,8,2.3,8c2.6,0,3.5-4,3.7-6.9h0.2c-0.1,2.3,0.1,5.9,0.5,7.3L583.6-222.8z"/>
		<path class="st0" d="M584.2-223.5h0.5c1.1,0,1.9-1.4,2.5-3.3l3-9.9c-0.3-1-0.7-1.6-1.4-1.6v-0.2c2.9,0,3.9-0.2,4.1-1.4h0.2
			c0,0.9,0.3,2.2,0.6,3.1l3.7,11.4c0.4,1.4,0.8,1.9,2,1.9h0.2v0.2h-8v-0.2h0.7c1.1,0,1.7-0.6,1.3-2l-1.1-3.7h-4.3l-0.8,2.6
			c-0.6,2.1,0.2,3.1,1.2,3.1h0.6v0.2h-5V-223.5z M592.5-229.5l-2.1-6.5h-0.1l-1.9,6.5H592.5z"/>
	</g>
	<g>
		<path class="st0" d="M495.1-205.2l-1.1-7h-6.8l-1.1,7c0,0.4-0.2,0.7-0.7,0.7h-1.7c-0.4,0-0.6-0.3-0.6-0.7l5-32.4
			c0-0.5,0.3-0.7,0.8-0.7h3.3c0.5,0,0.7,0.3,0.8,0.7l5,32.4c0,0.5-0.2,0.7-0.6,0.7h-1.7C495.4-204.5,495.2-204.8,495.1-205.2z
			 M487.6-214.8h6l-1.9-12.7l-1-8h-0.2l-1,8L487.6-214.8z"/>
		<path class="st0" d="M510.6-237.7c0-0.5,0.2-0.7,0.7-0.7h1.5c0.5,0,0.7,0.2,0.7,0.7v32.5c0,0.5-0.2,0.7-0.7,0.7h-2.2
			c-0.5,0-0.7-0.2-0.8-0.7l-5.1-20l-1.4-6.5h-0.2l0.3,6.6v19.8c0,0.5-0.2,0.7-0.7,0.7h-1.5c-0.5,0-0.7-0.2-0.7-0.7v-32.5
			c0-0.5,0.2-0.7,0.7-0.7h2.2c0.5,0,0.7,0.2,0.8,0.7l5.1,20l1.4,6.5h0.2l-0.3-6.6V-237.7z"/>
	</g>
	<path class="st0" d="M490.7-238.4H487c0,0,1.1,0.3,1.1,1.3L490.7-238.4z"/>
	<path class="st0" d="M503-238.4h-3.7c0,0,1.1,0.3,1.1,1.3L503-238.4z"/>
	<path class="st0" d="M510.9-204.5h3.7c0,0-1.1-0.3-1.1-1.3L510.9-204.5z"/>
	<path class="st0" d="M501.2-204.5h3.2c0,0-1.1-0.3-1.1-1.3L501.2-204.5z"/>
	<path class="st0" d="M484.1-204.5h3.2c0,0-1.1-0.3-1.1-1.3L484.1-204.5z"/>
	<path class="st0" d="M495.9-204.5h3.2c0,0-1.1-0.3-1.1-1.3L495.9-204.5z"/>
	<path class="st0" d="M511.8-238.4h2.7c0,0-1.1,0.3-1.1,1.3L511.8-238.4z"/>
	<path class="st0" d="M568.4-208.9c-0.2-3.1,0.1-3.5-0.9-3.8c-0.5,0-1,0.1-1.6,0.1h-0.8v5.9c0,0.8,0.3,1.3,1.2,1.3h0.6v0.2h-7.4
		v-0.2h0.5c1.1,0,1.3-0.6,1.3-1.3v-12.5c0-0.8-0.2-1.3-1.3-1.3h-0.5v-0.2h2.1c1,0,3.6-0.1,4.9-0.1c4.1,0,5.8,1.1,5.8,4.2
		c0,2-1.6,3.5-3.9,3.7v0.1c2.3,0.1,3.6,0.9,3.9,3.7c0.2,2.1,0,3.7,1,3.7c0.6,0,0.8-0.8,0.8-1.5c0-0.2,0-0.5-0.1-0.6
		c0-0.1,0.2-0.1,0.3,0c0,0.2,0.1,0.4,0.1,0.6c0,1.4-1.1,2.1-2.7,2.1C569.8-204.9,568.6-205.9,568.4-208.9z M568.2-216.5
		c0-1.8,0.5-4.1-2-4.1c-0.3,0-0.7,0.1-1.1,0.2v7.2c0.4,0.3,0.8,0.3,1.3,0.3C568.4-212.8,568.2-214.4,568.2-216.5z"/>
</g>
<g>
	<path class="st0" d="M-767.4,110.1h3.4c7.7,0,16-9.9,23.4-22.7l39.3-68.7c-0.1-7.3-1.6-11.3-6.7-11.5l0.3-1.2
		c19.8,0,27.7-1.7,31.4-9.7h1.2c-1.9,6.3-1.8,15.3-1.4,21.4l4.6,79.4c0.5,9.6,2.2,13.2,10.2,13.2h1.7l-0.4,1.5H-716l0.4-1.5h4.6
		c7.6,0,12.8-4.3,12.6-13.6l-0.5-26h-30l-10.3,17.8c-8.4,14.7-4.8,21.8,2.7,21.8h3.9l-0.4,1.5h-34.8L-767.4,110.1z M-698.7,68.6
		l-2.6-45.3h-0.8l-25.6,45.3H-698.7z"/>
</g>
<g>
	<path class="st0" d="M-647.7,17.8h-0.6L-669.2,96c-2.3,8.5,0.3,13.9,9.4,13.9h4.6l-0.4,1.6h-33.9l0.4-1.6h2.6
		c8.4,0,13.1-5.6,15.2-13.5l23-85.9c1.6-5.9-0.2-9.6-7.8-9.6h-3.3l0.4-1.6h35.6l26.3,66.5l14.1-52.5C-581.2,7.1-583,1-590.4,1h-4.6
		l0.4-1.6h30L-565,1h-2.6c-7.6,0-11.7,6.2-13.4,12.3l-27,100.6h-0.8L-647.7,17.8z"/>
</g>
<g>
	<g>
		<path class="st0" d="M-819,296h1.7c3.7,0,4.5-1.9,4.5-4.5v-42c0-2.6-0.7-4.5-4.5-4.5h-1.7v-0.7h23c12.6,0,12.8-0.4,14.2-2.4
			l0.4,0.4c-0.6,4.1-0.5,12.4,0.2,20.3h-0.5c-1.5-12.7-5.8-17.5-15-17.5h-3.8v25.6c8.4,0.1,11.5-2.4,13.3-8.6l0.5,0.2
			c-1,6-1.3,13.8-1.3,21.3l-0.4,0.1c-0.4-8.5-3.1-12.2-12.1-12.2V290c0,4.4,1.2,6,5.6,6h3.4v0.7H-819V296z"/>
		<path class="st0" d="M-748.3,284.1c-0.8-10.4,0.3-11.7-3.1-12.9c-1.6,0.1-3.4,0.3-5.2,0.3h-2.6v20c0,2.7,1,4.5,4.1,4.5h2v0.7
			h-24.7V296h1.7c3.7,0,4.5-1.9,4.5-4.5v-42c0-2.6-0.7-4.5-4.5-4.5h-1.7v-0.7h7c3.2,0,12.2-0.4,16.3-0.4c13.7,0,19.5,3.7,19.5,14
			c0,6.7-5.2,11.8-13.2,12.5v0.2c7.6,0.4,12.2,3.1,13.2,12.3c0.7,7,0,12.4,3.4,12.4c1.9,0,2.8-2.8,2.8-5c0-0.8-0.1-1.6-0.4-2.2
			c0.1-0.3,0.8-0.4,1,0c0.2,0.7,0.2,1.5,0.2,2.2c0,4.7-3.6,7-9.1,7C-743.5,297.4-747.5,294.2-748.3,284.1z M-748.8,258.5
			c0-6,1.8-13.8-6.8-13.8c-1.1,0-2.4,0.3-3.8,0.8v24.1c1.4,1,2.8,1.1,4.3,1.1C-748.1,270.8-748.8,265.5-748.8,258.5z"/>
	</g>
	<g>
		<path class="st0" d="M-567.9,357.8c1.3-5.2,2.5-15.1,2.8-23h0.5c-0.1,14.8,5.7,22.6,12.2,22.6c5.2,0,7.3-3.4,7.3-7.9
			c0-5.8-4.5-9.2-8.4-12.2c-8.5-6.6-13.3-11.3-13.3-19.6c0-7.9,5.8-13.6,17-13.6c3.2,0,6.3,0.3,8.8,0.3c2.8,0,4.9-0.4,5.8-1.9
			l0.4,0.4c-1.3,5.2-1.3,13.6-1.6,21.5h-0.5c-0.7-13.9-6.8-19.6-11.6-19.6c-5.1,0-6.6,2.9-6.6,6.3c0,6.6,4.2,10,10.1,14.5
			c5.6,4.2,11.6,8.5,11.6,17.1c0,8.9-6.6,15.4-18.4,15.4c-4.6,0-9.2-1.8-12.4-1.8c-1.6,0-2.8,0.4-3.5,1.8L-567.9,357.8z"/>
		<path class="st0" d="M-528,330.5c0-15.6,8.5-26.4,22.4-26.4s22.4,10.9,22.4,26.4c0,16.7-8.5,27.6-22.4,27.6S-528,347.2-528,330.5z
			 M-497.6,329.9c0-8.9,4.7-25.1-8-25.1c-12.7,0-7.9,16.3-7.9,25.1c0,9.7-4.8,27.3,7.9,27.3C-492.8,357.3-497.6,339.5-497.6,329.9z"
			/>
		<path class="st0" d="M-473.6,336.9v-26.8c0-2.8-1.3-4.5-5-4.5h-1.3v-0.7h26v0.7h-1.3c-3.4,0-5.2,1.7-5.2,5.2v28.5
			c0,13.3,5.3,16.5,10.9,16.5c5.3,0,11.2-4.4,11.2-18.6v-24.1c0-4.7-1.7-7.5-6-7.5h-1.3v-0.7h15.1v0.7h-1.3c-3.9,0-5.5,3.1-5.5,7.5
			v24.6c0,12.9-5.3,20.8-17.5,20.8C-465.9,358.4-473.6,352.6-473.6,336.9z"/>
		<path class="st0" d="M-400.1,344.6c-0.8-10.4,0.3-11.7-3.1-12.9c-1.6,0.1-3.4,0.3-5.2,0.3h-2.6v20c0,2.7,1,4.5,4.1,4.5h2v0.7
			h-24.7v-0.7h1.7c3.7,0,4.5-1.9,4.5-4.5v-42c0-2.6-0.7-4.5-4.5-4.5h-1.7v-0.7h7c3.2,0,12.2-0.4,16.3-0.4c13.7,0,19.5,3.7,19.5,14
			c0,6.7-5.2,11.8-13.2,12.5v0.2c7.6,0.4,12.2,3.1,13.2,12.3c0.7,7,0,13.2,3.4,13.2c1.9,0,2.4,0.6,3.4,0.7c0.8,0-3.4,1.8-8.9,1.8
			C-395.4,359.1-399.3,354.7-400.1,344.6z M-400.6,319c0-6,1.8-13.8-6.8-13.8c-1.1,0-2.4,0.3-3.8,0.8v24.1c1.4,1,2.8,1.1,4.3,1.1
			C-399.9,331.3-400.6,326-400.6,319z"/>
	</g>
	<g>
		<path class="st0" d="M-811.4,312.4h-0.4v38.7c0,3.7,1.6,6.2,5.2,6.2h1.9v0.7h-14.9v-0.7h1.6c3.7,0,5.2-2.5,5.2-6l-0.1-40.5
			c0-3-1.4-4.5-4.7-4.5h-1.3v-0.7h18.8l11.6,34.1h0.4l11.1-34.1h17.6v0.7h-1.1c-3.7,0-4.5,1.6-4.5,4.4v42c0,2.8,0.8,4.5,4.5,4.5h1.6
			v0.7h-25.2v-0.7h1.5c3.7,0,5.2-1.6,5.2-4.3v-41.4h-0.5l-15.8,47.6h-0.7L-811.4,312.4z"/>
	</g>
	<path class="st0" d="M-754.2,356.6h3.6c8.3,0,14.2-10.6,18.5-24.3l22.3-73.4c-2.2-7.8-5-12.1-10.4-12.2v-1.3
		c21.2,0,29.1-1.8,30.8-10.4h1.3c-0.2,6.8,2.5,16.4,4.6,22.8l27.6,84.8c3.3,10.3,6.1,14.1,14.7,14.1h1.8v1.7h-59.5v-1.7h5
		c8.1,0,12.4-4.6,9.6-14.6l-7.9-27.8h-32.1l-6,19c-4.8,15.7,1.2,23.3,9.1,23.3h4.1v1.7h-37.2V356.6z M-692.6,312.2l-15.7-48.5h-0.8
		l-14.4,48.5H-692.6z"/>
	<path class="st0" d="M-652.8,261.5h-0.7v80.7c0,8.8,4.3,14.4,14.1,14.4h5v1.7h-36.2v-1.7h2.8c8.9,0,12.4-5.8,12.4-13.9V254
		c0-6.1-3-9.9-11.1-9.9h-3.5v-1.7h38l47.1,68.6v-54.2c0-6.5-3.6-12.7-11.6-12.7h-5v-1.7h32.1v1.7h-2.8c-8.1,0-10.8,6.5-10.8,12.7
		v103.9h-0.8L-652.8,261.5z"/>
	<g>
		<path class="st0" d="M-533.3,297.1c-0.8-2.2-2.3-2.8-4.1-2.8c-3.2,0-7.4,2.1-11,2.1c-14.5,0-22.3-10.9-22.3-27.3
			c0-15.6,8.1-26.4,22.3-26.4c4.9,0,8.2,0.7,10.6,0.7c1.9,0,3.2-0.5,4-2.2l0.5,0.4c-1.3,5.2-1.3,14.4-1.6,22.3h-0.5
			c-0.8-13.9-4.9-20.3-12.3-20.3c-11.9,0-7.5,16.3-7.5,25.1c0,9.4-4.8,27,7.6,27c8.8,0,11.7-13.5,12.6-23.3h0.5
			c-0.2,7.8,0.4,19.9,1.7,24.6L-533.3,297.1z"/>
		<path class="st0" d="M-528.3,294.8h1.7c3.7,0,4.5-1.9,4.5-4.5v-42c0-2.6-0.7-4.5-4.5-4.5h-1.7v-0.8h24.4v0.8h-1.6
			c-3,0-4.1,1.9-4.1,4.5V268h16.5v-19.6c0-2.6-1.1-4.5-4.1-4.5h-1.7v-0.8h24.4v0.8h-1.6c-3.7,0-4.5,1.9-4.5,4.5v42
			c0,2.5,0.7,4.5,4.5,4.5h1.6v0.8h-24.4v-0.8h1.7c3,0,4.1-1.9,4.1-4.5v-21.4h-16.5v21.4c0,2.5,1.1,4.5,4.1,4.5h1.6v0.8h-24.4V294.8z
			"/>
		<path class="st0" d="M-432.6,298.9c-1.2-2.9-2.7-3.3-17.7-3.3h-20.5v-0.8h1.7c3.7,0,4.5-1.9,4.5-4.5v-42c0-2.6-0.7-4.5-4.5-4.5
			h-1.7v-0.8h21.9c12.6,0,14.4-0.4,15.8-2.4l0.3,0.4c-0.7,4.1-1.1,13-0.5,20.6l-0.5,0.4c-1.9-12.7-2.9-18.2-13.1-18.2h-5.3v23
			c8.4,0.1,9.8-2.1,11.5-8.6l0.5,0.2c-0.7,4.1-0.7,12.2,0.3,19.9l-0.4,0.4c-1.6-8.6-3.1-11.1-11.8-11.1v27.2h4.4
			c7.4,0,14.4-4.9,17.3-22.7h0.6c-1.4,7.4-2.4,17.1-2.4,26.7L-432.6,298.9z"/>
		<path class="st0" d="M-426.3,296.1c1.3-5.2,2.5-15.1,2.8-23h0.5c-0.1,14.8,5.7,22.6,12.2,22.6c5.2,0,7.3-3.4,7.3-7.9
			c0-5.8-4.5-9.2-8.4-12.2c-8.5-6.6-13.3-11.3-13.3-19.6c0-7.9,5.8-13.6,17-13.6c3.2,0,6.3,0.3,8.8,0.3c2.8,0,4.9-0.4,5.8-1.9
			l0.4,0.4c-1.3,5.2-1.3,13.6-1.6,21.5h-0.5c-0.7-13.9-6.8-19.6-11.6-19.6c-5.1,0-6.6,2.9-6.6,6.3c0,6.6,4.2,10,10.1,14.5
			c5.6,4.2,11.6,8.5,11.6,17.1c0,8.9-6.6,15.4-18.4,15.4c-4.6,0-9.2-1.8-12.4-1.8c-1.6,0-2.8,0.5-3.5,1.8L-426.3,296.1z"/>
		<path class="st0" d="M-348.9,297.1c-0.8-2.2-2.3-2.8-4.1-2.8c-3.2,0-7.4,2.1-11,2.1c-14.5,0-22.3-10.9-22.3-27.3
			c0-15.6,8.1-26.4,22.3-26.4c4.9,0,8.2,0.7,10.6,0.7c1.9,0,3.2-0.5,4-2.2l0.5,0.4c-1.3,5.2-1.3,14.4-1.6,22.3h-0.5
			c-0.8-13.9-4.9-20.3-12.3-20.3c-11.9,0-7.5,16.3-7.5,25.1c0,9.4-4.8,27,7.6,27c8.8,0,11.7-13.5,12.6-23.3h0.5
			c-0.2,7.8,0.4,19.9,1.7,24.6L-348.9,297.1z"/>
		<path class="st0" d="M-347,294.8h1.6c3.7,0,6.4-4.8,8.4-11l10.1-33.3c-1-3.5-2.2-5.5-4.7-5.5v-0.6c9.6,0,13.2-0.8,13.9-4.7h0.6
			c-0.1,3.1,1.1,7.4,2.1,10.3l12.5,38.4c1.5,4.6,2.8,6.4,6.7,6.4h0.8v0.8h-27v-0.8h2.2c3.7,0,5.6-2.1,4.3-6.6l-3.6-12.6h-14.5
			l-2.7,8.6c-2.2,7.1,0.5,10.6,4.1,10.6h1.9v0.8H-347V294.8z M-319.1,274.7l-7.1-22h-0.4l-6.5,22H-319.1z"/>
	</g>
</g>
<g>
	<path class="st1" d="M5.2,41.8h1c2.3,0,2.7-1.1,2.7-2.7V13.9c0-1.6-0.5-2.7-2.7-2.7h-1v-0.5H19c7.6,0,7.7-0.2,8.6-1.4l0.2,0.2
		c-0.4,2.5-0.3,7.4,0.1,12.2h-0.3c-0.9-7.7-3.5-10.5-9-10.5h-2.3v15.4c5,0,6.9-1.4,8-5.2l0.3,0.1c-0.6,3.6-0.8,8.3-0.8,12.8l-0.2,0
		c-0.2-5.1-1.9-7.3-7.3-7.3v11.2c0,2.7,0.7,3.6,3.4,3.6h2.1v0.5H5.2V41.8z"/>
	<path class="st1" d="M47.7,34.7c-0.5-6.3,0.2-7-1.9-7.7c-1,0.1-2,0.2-3.2,0.2H41v12c0,1.6,0.6,2.7,2.5,2.7h1.2v0.5H29.9v-0.5h1
		c2.3,0,2.7-1.1,2.7-2.7V13.9c0-1.6-0.5-2.7-2.7-2.7h-1v-0.5h4.2c1.9,0,7.3-0.2,9.8-0.2c8.2,0,11.7,2.3,11.7,8.4
		c0,4.1-3.2,7.1-7.9,7.5v0.1c4.5,0.2,7.3,1.8,7.9,7.4c0.5,4.2,0,7.5,2,7.5c1.2,0,1.7-1.7,1.7-3c0-0.5,0-1-0.2-1.3
		c0-0.2,0.5-0.2,0.6,0c0.1,0.5,0.1,0.9,0.1,1.3c0,2.8-2.2,4.2-5.4,4.2C50.6,42.6,48.1,40.8,47.7,34.7z M47.4,19.3
		c0-3.6,1.1-8.3-4.1-8.3c-0.7,0-1.4,0.2-2.3,0.5V26c0.9,0.6,1.7,0.7,2.6,0.7C47.8,26.7,47.4,23.5,47.4,19.3z"/>
</g>
<g>
	<path class="st1" d="M156.1,79c0.8-3.2,1.5-9.1,1.7-13.8h0.3c0,8.9,3.4,13.6,7.3,13.6c3.1,0,4.4-2,4.4-4.8c0-3.5-2.7-5.5-5-7.3
		c-5.1-4-8-6.8-8-11.8c0-4.7,3.5-8.2,10.2-8.2c1.9,0,3.8,0.2,5.3,0.2c1.7,0,3-0.2,3.5-1.1l0.3,0.2c-0.8,3.1-0.8,8.2-0.9,12.9h-0.3
		c-0.5-8.4-4.1-11.8-7-11.8c-3.1,0-4,1.8-4,3.8c0,4,2.5,6,6.1,8.7c3.4,2.5,7,5.1,7,10.3c0,5.4-4,9.3-11.1,9.3
		c-2.7,0-5.5-1.1-7.4-1.1c-0.9,0-1.7,0.3-2.1,1.1L156.1,79z"/>
	<path class="st1" d="M180.1,62.6c0-9.4,5.1-15.9,13.5-15.9c8.3,0,13.5,6.5,13.5,15.9c0,10-5.1,16.6-13.5,16.6
		C185.2,79.1,180.1,72.6,180.1,62.6z M198.4,62.2c0-5.4,2.8-15.1-4.8-15.1c-7.7,0-4.8,9.8-4.8,15.1c0,5.8-2.9,16.4,4.8,16.4
		C201.2,78.7,198.4,67.9,198.4,62.2z"/>
	<path class="st1" d="M212.8,66.4V50.3c0-1.7-0.8-2.7-3-2.7h-0.8v-0.5h15.6v0.5h-0.8c-2.1,0-3.2,1-3.2,3.2v17.1c0,8,3.2,9.9,6.5,9.9
		c3.2,0,6.8-2.7,6.8-11.2V52.1c0-2.8-1-4.5-3.6-4.5h-0.8v-0.5h9.1v0.5h-0.8c-2.3,0-3.3,1.8-3.3,4.5v14.8c0,7.7-3.2,12.5-10.5,12.5
		C217.4,79.3,212.8,75.8,212.8,66.4z"/>
	<path class="st1" d="M256.9,71c-0.5-6.3,0.2-7-1.9-7.7c-1,0.1-2,0.2-3.2,0.2h-1.6v12c0,1.6,0.6,2.7,2.5,2.7h1.2v0.5h-14.9v-0.5h1
		c2.3,0,2.7-1.1,2.7-2.7V50.3c0-1.6-0.5-2.7-2.7-2.7h-1v-0.5h4.2c1.9,0,7.3-0.2,9.8-0.2c8.2,0,11.7,2.3,11.7,8.4
		c0,4.1-3.2,7.1-7.9,7.5V63c4.5,0.2,7.3,1.8,7.9,7.4c0.5,4.2,0,7.9,2,7.9c1.2,0,1.5,0.4,2,0.4c0.5,0-2,1.1-5.3,1.1
		C259.8,79.8,257.4,77.1,256.9,71z M256.7,55.6c0-3.6,1.1-8.3-4.1-8.3c-0.7,0-1.4,0.2-2.3,0.5v14.5c0.9,0.6,1.7,0.7,2.6,0.7
		C257.1,63,256.7,59.8,256.7,55.6z"/>
</g>
<g>
	<path class="st1" d="M9.7,51.7H9.5v23.3c0,2.3,1,3.7,3.2,3.7h1.1v0.5h-9v-0.5h1C8,78.7,9,77.2,9,75.1l0-24.3c0-1.8-0.9-2.7-2.8-2.7
		H5.3v-0.5h11.3l7,20.5h0.2l6.7-20.5H41v0.5h-0.7c-2.3,0-2.7,1-2.7,2.7V76c0,1.7,0.5,2.7,2.7,2.7h1v0.5H26.2v-0.5h0.9
		c2.2,0,3.2-1,3.2-2.6V51.2h-0.3l-9.5,28.6H20L9.7,51.7z"/>
</g>
<path class="st1" d="M44.2,78.2h2.2c5,0,8.6-6.4,11.1-14.6l13.4-44.1c-1.3-4.7-3-7.3-6.3-7.4v-0.8c12.7,0,17.5-1.1,18.5-6.3h0.8
	c-0.1,4.1,1.5,9.8,2.8,13.7l16.6,51c2,6.2,3.7,8.5,8.8,8.5h1.1v1H77.5v-1h3c4.9,0,7.5-2.8,5.8-8.7l-4.8-16.7H62.1l-3.6,11.4
	c-2.9,9.4,0.7,14,5.5,14h2.5v1H44.2V78.2z M81.1,51.6l-9.4-29.1h-0.5l-8.6,29.1H81.1z"/>
<path class="st1" d="M105.1,21.1h-0.4v48.5c0,5.3,2.6,8.6,8.5,8.6h3v1H94.4v-1h1.7c5.4,0,7.5-3.5,7.5-8.4V16.6c0-3.7-1.8-6-6.7-6
	h-2.1v-1h22.9L146,50.9V18.3c0-3.9-2.2-7.7-7-7.7h-3v-1h19.3v1h-1.7c-4.9,0-6.5,3.9-6.5,7.7v62.4h-0.5L105.1,21.1z"/>
<g>
	<path class="st1" d="M176.9,42.5c-0.5-1.3-1.4-1.7-2.5-1.7c-1.9,0-4.5,1.3-6.6,1.3c-8.7,0-13.4-6.6-13.4-16.4
		c0-9.4,4.9-15.9,13.4-15.9c2.9,0,5,0.4,6.3,0.4c1.2,0,1.9-0.3,2.4-1.4l0.3,0.2c-0.8,3.1-0.8,8.6-0.9,13.4h-0.3
		c-0.5-8.4-2.9-12.2-7.4-12.2c-7.2,0-4.5,9.8-4.5,15.1c0,5.7-2.9,16.3,4.5,16.3c5.3,0,7-8.1,7.6-14h0.3c-0.1,4.7,0.2,11.9,1,14.8
		L176.9,42.5z"/>
	<path class="st1" d="M179.9,41.1h1c2.3,0,2.7-1.1,2.7-2.7V13.2c0-1.6-0.5-2.7-2.7-2.7h-1V10h14.6v0.5h-1c-1.8,0-2.5,1.1-2.5,2.7V25
		h9.9V13.2c0-1.6-0.7-2.7-2.5-2.7h-1V10h14.6v0.5h-1c-2.3,0-2.7,1.1-2.7,2.7v25.2c0,1.5,0.5,2.7,2.7,2.7h1v0.5h-14.6v-0.5h1
		c1.8,0,2.5-1.1,2.5-2.7V25.5h-9.9v12.9c0,1.5,0.7,2.7,2.5,2.7h1v0.5h-14.6V41.1z"/>
	<path class="st1" d="M237.5,43.5c-0.7-1.8-1.6-2-10.6-2h-12.3v-0.5h1c2.3,0,2.7-1.1,2.7-2.7V13.2c0-1.6-0.5-2.7-2.7-2.7h-1V10h13.2
		c7.6,0,8.6-0.2,9.5-1.4l0.2,0.2c-0.4,2.5-0.6,7.8-0.3,12.4l-0.3,0.2c-1.1-7.6-1.8-10.9-7.9-10.9h-3.2v13.8c5,0,5.9-1.3,6.9-5.2
		l0.3,0.1c-0.4,2.5-0.4,7.3,0.2,11.9l-0.3,0.2c-0.9-5.2-1.9-6.7-7.1-6.7v16.3h2.7c4.5,0,8.6-3,10.4-13.6h0.4
		c-0.9,4.5-1.4,10.3-1.4,16L237.5,43.5z"/>
	<path class="st1" d="M241.2,41.9c0.8-3.2,1.5-9.1,1.7-13.8h0.3c0,8.9,3.4,13.6,7.3,13.6c3.1,0,4.4-2,4.4-4.8c0-3.5-2.7-5.5-5-7.3
		c-5.1-4-8-6.8-8-11.8c0-4.7,3.5-8.2,10.2-8.2c1.9,0,3.8,0.2,5.3,0.2c1.7,0,3-0.2,3.5-1.1l0.3,0.2c-0.8,3.1-0.8,8.2-0.9,12.9H260
		c-0.5-8.4-4.1-11.8-7-11.8c-3.1,0-4,1.8-4,3.8c0,4,2.5,6,6.1,8.7c3.4,2.5,7,5.1,7,10.3c0,5.4-4,9.3-11.1,9.3
		c-2.7,0-5.5-1.1-7.4-1.1c-0.9,0-1.7,0.3-2.1,1.1L241.2,41.9z"/>
	<path class="st1" d="M287.7,42.5c-0.5-1.3-1.4-1.7-2.5-1.7c-1.9,0-4.5,1.3-6.6,1.3c-8.7,0-13.4-6.6-13.4-16.4
		c0-9.4,4.9-15.9,13.4-15.9c2.9,0,5,0.4,6.3,0.4c1.2,0,1.9-0.3,2.4-1.4l0.3,0.2c-0.8,3.1-0.8,8.6-0.9,13.4h-0.3
		c-0.5-8.4-2.9-12.2-7.4-12.2c-7.2,0-4.5,9.8-4.5,15.1c0,5.7-2.9,16.3,4.5,16.3c5.3,0,7-8.1,7.6-14h0.3c-0.1,4.7,0.2,11.9,1,14.8
		L287.7,42.5z"/>
	<path class="st1" d="M288.9,41.1h1c2.3,0,3.9-2.9,5-6.6l6.1-20c-0.6-2.1-1.4-3.3-2.8-3.3v-0.4c5.8,0,7.9-0.5,8.4-2.8h0.4
		c0,1.8,0.7,4.5,1.3,6.2l7.5,23.1c0.9,2.8,1.7,3.8,4,3.8h0.5v0.5H304v-0.5h1.4c2.2,0,3.4-1.3,2.6-4l-2.2-7.6h-8.7l-1.6,5.2
		c-1.3,4.3,0.3,6.3,2.5,6.3h1.1v0.5h-10.1V41.1z M305.7,29l-4.3-13.2h-0.2L297.2,29H305.7z"/>
</g>
<path class="st1" d="M103.3,69.8L96,47.4H79.8l1.4,4.2H62.5l1.3-4.2h-1.4l-4.9,16.3c-2.6,8.3-6.2,14.6-11.1,14.6h-2.2v1h22.4v-1H64
	c-4.8,0-8.4-4.6-5.5-14l3.6-11.4h19.3l4.8,16.7c1.7,6-0.9,8.7-5.8,8.7h-3v1h35.8v-1h-1.1C107,78.2,105.3,75.9,103.3,69.8z"/>
<g>
	<polygon class="st1" points="146,47.4 146,50.9 143.5,47.4 123.4,47.4 146.7,80.7 147.2,80.7 147.2,47.4 	"/>
	<path class="st1" d="M104.7,69.6V47.4h-1.2v22.5c0,4.9-2.1,8.4-7.5,8.4h-1.7v1h21.8v-1h-3C107.3,78.2,104.7,74.8,104.7,69.6z"/>
</g>
</svg>
