<?xml version="1.0" encoding="utf-8"?>
<!-- Generator: Adobe Illustrator 22.0.1, SVG Export Plug-In . SVG Version: 6.00 Build 0)  -->
<svg version="1.1" id="Layer_1" xmlns="http://www.w3.org/2000/svg" xmlns:xlink="http://www.w3.org/1999/xlink" x="0px" y="0px"
	 viewBox="0 0 324 90" style="enable-background:new 0 0 324 90;" xml:space="preserve">
<style type="text/css">
	.st0{fill:#FFEDE7;}
	.st1{fill:#FFFFFF;}
</style>
<g>
	<path class="st0" d="M-9.4-64.3h1c2.3,0,2.7-1.1,2.7-2.7v-25.2c0-1.6-0.5-2.7-2.7-2.7h-1v-0.5H4.4c7.6,0,7.7-0.2,8.6-1.4l0.2,0.2
		c-0.4,2.5-0.3,7.4,0.1,12.2H13c-0.9-7.7-3.5-10.5-9-10.5H1.7v15.4c5,0,6.9-1.4,8-5.2l0.3,0.1C9.4-81,9.2-76.3,9.2-71.8H9
		c-0.2-5.1-1.9-7.3-7.3-7.3v11.2c0,2.7,0.7,3.6,3.4,3.6h2.1v0.5H-9.4V-64.3z"/>
	<path class="st0" d="M33.1-71.4c-0.5-6.3,0.2-7-1.9-7.7c-1,0.1-2,0.2-3.2,0.2h-1.6v12c0,1.6,0.6,2.7,2.5,2.7h1.2v0.5H15.3v-0.5h1
		c2.3,0,2.7-1.1,2.7-2.7v-25.3c0-1.6-0.5-2.7-2.7-2.7h-1v-0.5h4.2c1.9,0,7.3-0.2,9.8-0.2c8.2,0,11.7,2.3,11.7,8.4
		c0,4.1-3.2,7.1-7.9,7.5v0.1c4.5,0.2,7.3,1.8,7.9,7.4c0.5,4.2,0,7.5,2,7.5c1.2,0,1.7-1.7,1.7-3c0-0.5,0-1-0.2-1.3
		c0-0.2,0.5-0.2,0.6,0c0.1,0.5,0.1,0.9,0.1,1.3c0,2.8-2.2,4.2-5.4,4.2C36-63.5,33.5-65.3,33.1-71.4z M32.8-86.8
		c0-3.6,1.1-8.3-4.1-8.3c-0.7,0-1.4,0.2-2.3,0.5v14.5c0.9,0.6,1.7,0.7,2.6,0.7C33.2-79.4,32.8-82.6,32.8-86.8z"/>
</g>
<g>
	<path class="st0" d="M141.5-27.1c0.8-3.2,1.5-9.1,1.7-13.8h0.3c0,8.9,3.4,13.6,7.3,13.6c3.1,0,4.4-2,4.4-4.8c0-3.5-2.7-5.5-5-7.3
		c-5.1-4-8-6.8-8-11.8c0-4.7,3.5-8.2,10.2-8.2c1.9,0,3.8,0.2,5.3,0.2c1.7,0,3-0.2,3.5-1.1l0.3,0.2c-0.8,3.1-0.8,8.2-0.9,12.9h-0.3
		c-0.5-8.4-4.1-11.8-7-11.8c-3.1,0-4,1.8-4,3.8c0,4,2.5,6,6.1,8.7c3.4,2.5,7,5.1,7,10.3c0,5.4-4,9.3-11.1,9.3
		c-2.7,0-5.5-1.1-7.4-1.1c-0.9,0-1.7,0.3-2.1,1.1L141.5-27.1z"/>
	<path class="st0" d="M165.5-43.5c0-9.4,5.1-15.9,13.5-15.9c8.3,0,13.5,6.5,13.5,15.9c0,10-5.1,16.6-13.5,16.6
		C170.6-27,165.5-33.5,165.5-43.5z M183.8-43.9c0-5.4,2.8-15.1-4.8-15.1c-7.7,0-4.8,9.8-4.8,15.1c0,5.8-2.9,16.4,4.8,16.4
		C186.6-27.4,183.8-38.2,183.8-43.9z"/>
	<path class="st0" d="M198.2-39.7v-16.1c0-1.7-0.8-2.7-3-2.7h-0.8V-59H210v0.5h-0.8c-2.1,0-3.2,1-3.2,3.2v17.1c0,8,3.2,9.9,6.5,9.9
		c3.2,0,6.8-2.7,6.8-11.2V-54c0-2.8-1-4.5-3.6-4.5h-0.8V-59h9.1v0.5h-0.8c-2.3,0-3.3,1.8-3.3,4.5v14.8c0,7.7-3.2,12.5-10.5,12.5
		C202.8-26.8,198.2-30.3,198.2-39.7z"/>
	<path class="st0" d="M242.3-35.1c-0.5-6.3,0.2-7-1.9-7.7c-1,0.1-2,0.2-3.2,0.2h-1.6v12c0,1.6,0.6,2.7,2.5,2.7h1.2v0.5h-14.9v-0.5h1
		c2.3,0,2.7-1.1,2.7-2.7v-25.2c0-1.6-0.5-2.7-2.7-2.7h-1V-59h4.2c1.9,0,7.3-0.2,9.8-0.2c8.2,0,11.7,2.3,11.7,8.4
		c0,4.1-3.2,7.1-7.9,7.5v0.2c4.5,0.2,7.3,1.8,7.9,7.4c0.5,4.2,0,7.9,2,7.9c1.2,0,1.5,0.4,2,0.4s-2,1.1-5.3,1.1
		C245.2-26.3,242.8-29,242.3-35.1z M242.1-50.5c0-3.6,1.1-8.3-4.1-8.3c-0.7,0-1.4,0.2-2.3,0.5v14.5c0.9,0.6,1.7,0.7,2.6,0.7
		C242.5-43.1,242.1-46.3,242.1-50.5z"/>
</g>
<g>
	<path class="st0" d="M-4.9-54.4h-0.2v23.3c0,2.3,1,3.7,3.2,3.7h1.1v0.5h-9v-0.5h1c2.2,0,3.2-1.5,3.2-3.6v-24.3
		c0-1.8-0.9-2.7-2.8-2.7h-0.9v-0.5H2L9-38h0.2l6.7-20.5h10.5v0.5h-0.7c-2.3,0-2.7,1-2.7,2.7v25.2c0,1.7,0.5,2.7,2.7,2.7h1v0.5H11.6
		v-0.5h0.9c2.2,0,3.2-1,3.2-2.6v-24.9h-0.3L5.9-26.3H5.4L-4.9-54.4z"/>
</g>
<path class="st0" d="M29.6-27.9h2.2c5,0,8.6-6.4,11.1-14.6l13.4-44.1c-1.3-4.7-3-7.3-6.3-7.4v-0.8c12.7,0,17.5-1.1,18.5-6.3h0.8
	c-0.1,4.1,1.5,9.8,2.8,13.7l16.6,51c2,6.2,3.7,8.5,8.8,8.5h1.1v1H62.9v-1h3c4.9,0,7.5-2.8,5.8-8.7l-4.8-16.7H47.5l-3.6,11.4
	c-2.9,9.4,0.7,14,5.5,14h2.5v1H29.6V-27.9z M66.5-54.5l-9.4-29.1h-0.5L48-54.5H66.5z"/>
<path class="st0" d="M90.5-85h-0.4v48.5c0,5.3,2.6,8.6,8.5,8.6h3v1H79.8v-1h1.7c5.4,0,7.5-3.5,7.5-8.4v-53.2c0-3.7-1.8-6-6.7-6h-2.1
	v-1h22.9l28.3,41.3v-32.6c0-3.9-2.2-7.7-7-7.7h-3v-1h19.3v1H139c-4.9,0-6.5,3.9-6.5,7.7v62.4H132L90.5-85z"/>
<g>
	<path class="st0" d="M162.3-63.6c-0.5-1.3-1.4-1.7-2.5-1.7c-1.9,0-4.5,1.3-6.6,1.3c-8.7,0-13.4-6.6-13.4-16.4
		c0-9.4,4.9-15.9,13.4-15.9c2.9,0,5,0.4,6.3,0.4c1.2,0,1.9-0.3,2.4-1.4l0.3,0.2c-0.8,3.1-0.8,8.6-0.9,13.4H161
		c-0.5-8.4-2.9-12.2-7.4-12.2c-7.2,0-4.5,9.8-4.5,15.1c0,5.7-2.9,16.3,4.5,16.3c5.3,0,7-8.1,7.6-14h0.3c-0.1,4.7,0.2,11.9,1,14.8
		L162.3-63.6z"/>
	<path class="st0" d="M165.3-65h1c2.3,0,2.7-1.1,2.7-2.7v-25.2c0-1.6-0.5-2.7-2.7-2.7h-1v-0.5h14.6v0.5h-1c-1.8,0-2.5,1.1-2.5,2.7
		v11.8h9.9v-11.8c0-1.6-0.7-2.7-2.5-2.7h-1v-0.5h14.6v0.5h-1c-2.3,0-2.7,1.1-2.7,2.7v25.2c0,1.5,0.5,2.7,2.7,2.7h1v0.5h-14.6V-65h1
		c1.8,0,2.5-1.1,2.5-2.7v-12.9h-9.9v12.9c0,1.5,0.7,2.7,2.5,2.7h1v0.5h-14.6V-65z"/>
	<path class="st0" d="M222.9-62.6c-0.7-1.8-1.6-2-10.6-2H200v-0.5h1c2.3,0,2.7-1.1,2.7-2.7v-25.1c0-1.6-0.5-2.7-2.7-2.7h-1v-0.5
		h13.2c7.6,0,8.6-0.2,9.5-1.4l0.2,0.2c-0.4,2.5-0.6,7.8-0.3,12.4l-0.3,0.2c-1.1-7.6-1.8-10.9-7.9-10.9h-3.2v13.8
		c5,0,5.9-1.3,6.9-5.2l0.3,0.1c-0.4,2.5-0.4,7.3,0.2,11.9l-0.3,0.2c-0.9-5.2-1.9-6.7-7.1-6.7v16.3h2.7c4.5,0,8.6-3,10.4-13.6h0.4
		c-0.9,4.5-1.4,10.3-1.4,16L222.9-62.6z"/>
	<path class="st0" d="M226.6-64.2c0.8-3.2,1.5-9.1,1.7-13.8h0.3c0,8.9,3.4,13.6,7.3,13.6c3.1,0,4.4-2,4.4-4.8c0-3.5-2.7-5.5-5-7.3
		c-5.1-4-8-6.8-8-11.8c0-4.7,3.5-8.2,10.2-8.2c1.9,0,3.8,0.2,5.3,0.2c1.7,0,3-0.2,3.5-1.1l0.3,0.2c-0.8,3.1-0.8,8.2-0.9,12.9h-0.3
		c-0.5-8.4-4.1-11.8-7-11.8c-3.1,0-4,1.8-4,3.8c0,4,2.5,6,6.1,8.7c3.4,2.5,7,5.1,7,10.3c0,5.4-4,9.3-11.1,9.3
		c-2.7,0-5.5-1.1-7.4-1.1c-0.9,0-1.7,0.3-2.1,1.1L226.6-64.2z"/>
	<path class="st0" d="M273.1-63.6c-0.5-1.3-1.4-1.7-2.5-1.7c-1.9,0-4.5,1.3-6.6,1.3c-8.7,0-13.4-6.6-13.4-16.4
		c0-9.4,4.9-15.9,13.4-15.9c2.9,0,5,0.4,6.3,0.4c1.2,0,1.9-0.3,2.4-1.4l0.3,0.2c-0.8,3.1-0.8,8.6-0.9,13.4h-0.3
		c-0.5-8.4-2.9-12.2-7.4-12.2c-7.2,0-4.5,9.8-4.5,15.1c0,5.7-2.9,16.3,4.5,16.3c5.3,0,7-8.1,7.6-14h0.3c-0.1,4.7,0.2,11.9,1,14.8
		L273.1-63.6z"/>
	<path class="st0" d="M274.3-65h1c2.3,0,3.9-2.9,5-6.6l6.1-20c-0.6-2.1-1.4-3.3-2.8-3.3v-0.4c5.8,0,7.9-0.5,8.4-2.8h0.4
		c0,1.8,0.7,4.5,1.3,6.2l7.5,23.1c0.9,2.8,1.7,3.8,4,3.8h0.5v0.5h-16.3V-65h1.4c2.2,0,3.4-1.3,2.6-4l-2.2-7.6h-8.7l-1.6,5.2
		c-1.3,4.3,0.3,6.3,2.5,6.3h1.1v0.5h-10.1L274.3-65L274.3-65z M291.1-77.1l-4.3-13.2h-0.2l-4,13.2H291.1z"/>
</g>
<path class="st0" d="M88.7-36.3l-7.3-22.4H65.2l1.4,4.2H47.9l1.3-4.2h-1.4l-4.9,16.3c-2.6,8.3-6.2,14.6-11.1,14.6h-2.2v1H52v-1h-2.6
	c-4.8,0-8.4-4.6-5.5-14l3.6-11.4h19.3l4.8,16.7c1.7,6-0.9,8.7-5.8,8.7h-3v1h35.8v-1h-1.1C92.4-27.9,90.7-30.2,88.7-36.3z"/>
<g>
	<polygon class="st0" points="131.4,-58.7 131.4,-55.2 128.9,-58.7 108.8,-58.7 132.1,-25.4 132.6,-25.4 132.6,-58.7 	"/>
	<path class="st0" d="M90.1-36.5v-22.2h-1.2v22.5c0,4.9-2.1,8.4-7.5,8.4h-1.7v1h21.8v-1h-3C92.7-27.9,90.1-31.3,90.1-36.5z"/>
</g>
<g>
	<path class="st1" d="M62.3,38.6c1.3,0,2.2-0.8,2.2-2.1c0-0.5-0.3-1.1-0.5-1.5l-6.4-11.9c3.4-1.6,5.9-4.8,5.9-9.1
		c0-6.5-5-10.8-11.2-10.8h-8.2c-1.2,0-2.2,1-2.2,2.2v31c0,1.2,1,2.2,2.2,2.2c1.3,0,2.2-1,2.2-2.2V24.5h4.8c0.8,0,1.5-0.1,2.3-0.2
		l6.9,13.2C60.8,38,61.5,38.6,62.3,38.6z M52.2,20.9h-5.8V7.1h5.8c3.9,0,6.9,2.6,6.9,6.9C59.1,18.2,56.1,20.9,52.2,20.9z"/>
	<path class="st1" d="M72.2,38.6c1,0,1.8-0.6,2.1-1.6l2.1-7.1h13.8l2.1,7.1c0.3,1,1.2,1.6,2.1,1.6c1.2,0,2.2-1,2.2-2.2
		c0-0.3-0.1-0.6-0.2-1.1l-8.9-29c-0.7-2.5-1.7-3.4-4.2-3.4c-2.3,0-3.5,1-4.2,3.4l-9,29c-0.2,0.5-0.2,0.8-0.2,1.1
		C70,37.7,71,38.6,72.2,38.6z M83.3,6.8h0.3l5.7,19.4H77.5L83.3,6.8z"/>
	<path class="st1" d="M109.1,12.5l14.2,24.9c0.5,0.8,1.3,1.3,2.3,1.3c1.5,0,2.4-1.1,2.4-2.2V5.1c0-1.3-1-2.2-2.2-2.2s-2.2,1-2.2,2.2
		v24.2h-0.1L109.2,4.2c-0.5-0.8-1.3-1.3-2.3-1.3c-1.4,0-2.4,1-2.4,2.2v30.6l0,0v15.7l0,0V75h-0.1L90.1,49.9
		c-0.5-0.8-1.3-1.3-2.3-1.3c-1.4,0-2.4,1-2.4,2.2v31.3c0,1.2,1,2.2,2.2,2.2c1.3,0,2.2-1,2.2-2.2V58.2H90L104.2,83
		c0.5,0.8,1.3,1.3,2.3,1.3c1.5,0,2.4-1.1,2.4-2.2V51.4v-0.6V35.7l0,0V12.5H109.1z"/>
	<path class="st1" d="M146.8,38.9c2.9,0,6.8-0.8,8.9-2.3c1-0.6,1.4-1.3,1.4-2.1c0-1-0.7-1.9-1.9-1.9c-0.7,0-1.5,0.5-2.3,0.8
		c-1.4,0.7-3.4,1.4-5.9,1.4c-7.3,0-9.8-5.8-9.8-13.9c0-7.8,2.3-14.3,9.6-14.3c2,0,4.3,0.6,5.9,1.5l0.4,2.9c0.2,1.3,1.1,2,2.1,2
		c1.2,0,2.1-0.7,2-2.5l-0.3-2.3c-0.2-2.1-1.2-3.2-2.9-4c-1.8-0.9-4.6-1.5-7.3-1.5c-9.9,0-13.8,8.2-13.8,18.2
		C132.8,31.3,137.1,38.9,146.8,38.9z"/>
	<path class="st1" d="M201.2,38.3h16c1.1,0,2-0.9,2-2s-0.9-2-2-2h-13.7V22h11.2c1.1,0,2-0.8,2-2c0-1.1-0.9-2-2-2h-11.2V7h13.7
		c1.1,0,2-0.9,2-2s-0.9-2-2-2h-15.9c-1.3,0-2.2,1-2.2,2.2v30.7C199,37.4,199.9,38.3,201.2,38.3z"/>
	<path class="st1" d="M237.8,18.2c-4.3-2-7.1-3.2-7.1-6.7c0-3.3,2.4-5,6.1-5c1.7,0,3.8,0.4,5.5,1.1l0.3,2.7c0.2,1.4,1.1,2.1,2.1,2.1
		c1.2,0,2.2-0.7,2-2.5l-0.3-2.6c-0.2-1.6-1.1-2.6-2.7-3.4c-1.8-0.8-4.6-1.3-6.9-1.3c-6.4,0-10.6,3.6-10.6,9.2c0,5.9,4.8,8,9.3,10
		c4.1,1.8,7.7,3.5,7.7,7.6c0,3.3-2.4,5.5-6.6,5.5c-1.8,0-4.6-0.4-6.4-1.2l-0.3-3c-0.2-1.4-1.2-2-2.2-2s-2.1,0.6-2,2.5L226,34
		c0.2,1.7,1,2.7,2.9,3.4c2,0.8,5.3,1.4,7.7,1.4c6.5,0,11.1-3.8,11.1-9.7C247.7,22.8,242.4,20.3,237.8,18.2z"/>
	<path class="st1" d="M268.9,6.6c2,0,4.3,0.6,5.9,1.5l0.4,2.9c0.2,1.3,1.1,2,2.1,2c1.2,0,2.1-0.7,2-2.5L279,8.2
		c-0.2-2.1-1.2-3.2-2.9-4c-1.8-0.9-4.6-1.5-7.3-1.5c-9.9,0-13.8,8.2-13.8,18.2c0,10.5,4.2,18.1,14,18.1c2.9,0,6.8-0.8,8.9-2.3
		c1-0.6,1.4-1.3,1.4-2.1c0-1-0.7-1.9-1.9-1.9c-0.7,0-1.5,0.5-2.3,0.8c-1.4,0.7-3.4,1.4-5.9,1.4c-7.3,0-9.8-5.8-9.8-13.9
		C259.3,13.1,261.6,6.6,268.9,6.6z"/>
	<path class="st1" d="M310.8,35.3l-8.9-29c-0.7-2.5-1.7-3.4-4.2-3.4c-2.3,0-3.5,1-4.2,3.4l-9,29c-0.2,0.5-0.2,0.8-0.2,1.1
		c0,1.2,1,2.2,2.2,2.2c1,0,1.8-0.6,2.1-1.6l2.1-7.1h13.8l2.1,7.1c0.3,1,1.2,1.6,2.1,1.6c1.2,0,2.2-1,2.2-2.2
		C311,36.2,311,35.9,310.8,35.3z M291.8,26.2l5.8-19.4h0.3l5.7,19.4H291.8z"/>
	<path class="st1" d="M71.7,52c-0.7-2.5-1.7-3.4-4.2-3.4c-2.3,0-3.5,1-4.2,3.4l-9,29c-0.2,0.5-0.2,0.8-0.2,1.1c0,1.2,1,2.2,2.2,2.2
		c1,0,1.8-0.6,2.1-1.6l2.1-7.1h13.8l2.1,7.1c0.3,1,1.2,1.6,2.1,1.6c1.2,0,2.2-1,2.2-2.2c0-0.3-0.1-0.6-0.2-1.1L71.7,52z M61.6,71.9
		l5.8-19.4h0.3l5.7,19.4H61.6z"/>
	<path class="st1" d="M129.2,63.9c-4.3-2-7.1-3.2-7.1-6.7c0-3.3,2.4-5,6.1-5c1.7,0,3.8,0.4,5.5,1.1L134,56c0.2,1.4,1.1,2.1,2.1,2.1
		c1.2,0,2.2-0.7,2-2.5l-0.3-2.6c-0.2-1.6-1.1-2.6-2.7-3.4c-1.8-0.8-4.6-1.3-6.9-1.3c-6.4,0-10.6,3.6-10.6,9.2c0,5.9,4.8,8,9.3,10
		c4.1,1.8,7.7,3.5,7.7,7.6c0,3.3-2.4,5.5-6.6,5.5c-1.8,0-4.6-0.4-6.4-1.2l-0.3-3c-0.2-1.4-1.2-2-2.2-2s-2.1,0.6-2,2.5l0.3,2.8
		c0.2,1.7,1,2.7,2.9,3.4c2,0.8,5.3,1.4,7.7,1.4c6.5,0,11.1-3.8,11.1-9.7C139.1,68.5,133.8,66,129.2,63.9z"/>
	<path class="st1" d="M159.5,48.3c-9.7,0-13.3,8.2-13.3,18.1c0,10.2,3.9,18.1,13.3,18.1c9.6,0,13.4-7.9,13.4-18.1
		C172.9,56.5,169.2,48.3,159.5,48.3z M159.5,80.6c-6.6,0-8.9-6.1-8.9-14.1c0-7.3,2-14.2,8.9-14.2s9,6.9,9,14.2
		C168.5,74.4,166.2,80.6,159.5,80.6z"/>
	<path class="st1" d="M203.4,48.6c-1.3,0-2.2,1-2.2,2.2v21.4c0,5-2.5,8.3-7.3,8.3s-7.3-3.3-7.3-8.3V51.5v-0.6V36.4l0,0V5.1
		c0-1.3-1-2.2-2.2-2.2c-1.3,0-2.2,1-2.2,2.2v13.3h-13.5V5.1c0-1.3-1-2.2-2.2-2.2c-1.3,0-2.2,1-2.2,2.2v31.3c0,1.3,1,2.2,2.2,2.2
		c1.3,0,2.2-1,2.2-2.2V22.3h13.5v14.1v15.1l0,0v20.7c0,6.8,3.9,12.4,11.7,12.4s11.7-5.6,11.7-12.4V50.8
		C205.6,49.6,204.6,48.6,203.4,48.6z"/>
	<path class="st1" d="M231.7,68.8c3.4-1.6,5.9-4.8,5.9-9.1c0-6.5-5-10.8-11.2-10.8h-8.2c-1.2,0-2.2,1-2.2,2.2v31
		c0,1.2,1,2.2,2.2,2.2c1.3,0,2.2-1,2.2-2.2V70.2h4.8c0.8,0,1.5-0.1,2.3-0.2l6.9,13.2c0.4,0.6,1.1,1.2,2,1.2c1.3,0,2.2-0.8,2.2-2.1
		c0-0.5-0.3-1.1-0.5-1.5L231.7,68.8z M226.2,66.6h-5.8V52.8h5.8c3.9,0,6.9,2.6,6.9,6.9C233.2,63.9,230.1,66.6,226.2,66.6z"/>
	<path class="st1" d="M17,5.4c0-1.3,1-2.2,2.2-2.2h15.7c1.1,0,2,0.9,2,2s-0.9,2-2,2H21.4v11.7H32c1.1,0,2,0.8,2,2c0,1.1-0.9,2-2,2
		H21.4v13.7c0,1.3-1,2.2-2.2,2.2s-2.2-1-2.2-2.2C17,36.6,17,5.4,17,5.4z"/>
	<g>
		<path class="st1" d="M17,50.9c0-1.3,1-2.3,2.3-2.3c1.2,0,2,0.5,2.5,1.5l9,17.6h0.1l9-17.6c0.5-1,1.4-1.5,2.5-1.5
			c1.3,0,2.3,1.1,2.3,2.3v31.2c0,1.3-1,2.2-2.2,2.2c-1.3,0-2.3-1-2.3-2.2V58.2H40l-6.5,12.7c-0.5,1.1-1.4,1.8-2.7,1.8
			s-2.2-0.7-2.7-1.8l-6.5-12.7h-0.2v23.9c0,1.2-1,2.2-2.2,2.2s-2.2-1-2.2-2.2C17,82.1,17,50.9,17,50.9z"/>
	</g>
</g>
</svg>
